<svg width="501" height="336" viewBox="0 0 501 336" fill="none" xmlns="http://www.w3.org/2000/svg">
<path fill-rule="evenodd" clip-rule="evenodd" d="M251.497 287.106C314.034 286.713 364.754 236.094 364.355 174.448C363.956 112.812 312.571 62.837 250.034 63.241C187.465 63.634 136.733 114.253 137.132 175.9C137.542 237.536 188.928 287.499 251.497 287.106Z" fill="#1D1D1B"/>
<path fill-rule="evenodd" clip-rule="evenodd" d="M251.464 281.8C311.063 281.418 359.357 233.19 358.98 174.48C358.592 115.76 309.678 68.1543 250.068 68.5365C190.424 68.9186 142.131 117.146 142.519 175.856C142.896 234.566 191.821 282.182 251.464 281.8Z" fill="#DE0E70" stroke="#1D1D1B" stroke-width="0.0666" stroke-miterlimit="3.8637"/>
<path fill-rule="evenodd" clip-rule="evenodd" d="M251.254 249.459C292.752 249.197 326.415 215.567 326.149 174.688C325.883 133.808 291.788 100.605 250.278 100.878C208.735 101.14 175.084 134.769 175.35 175.649C175.616 216.528 209.711 249.721 251.254 249.459Z" fill="#1D1D1B"/>
<path fill-rule="evenodd" clip-rule="evenodd" d="M57.2935 174.218L58.1469 249.895L325.118 200.827C325.96 201.373 327.013 201.722 328.332 201.832C331.48 204.703 335.781 204.987 340.868 203.491L361.717 199.244C366.605 198.228 370.374 196.58 372.103 192.223L452.041 177.516L450.057 101.096L57.2935 174.218Z" fill="#1D1D1B"/>
<path fill-rule="evenodd" clip-rule="evenodd" d="M62.8577 179.328L63.6003 242.667L445.302 172.668L443.64 108.739L62.8577 179.328Z" fill="#EEE42A"/>
<path fill-rule="evenodd" clip-rule="evenodd" d="M254.313 207.695L445.302 172.679L443.64 108.75L253.892 143.963L253.847 137.641L450.057 101.107L452.041 177.527L372.103 192.234C370.363 196.591 366.605 198.239 361.717 199.255L340.868 203.502C335.781 204.998 331.48 204.714 328.332 201.843C327.002 201.733 325.96 201.384 325.118 200.838L254.357 213.864L254.313 207.695ZM62.8577 179.328L63.5892 242.667L254.302 207.695L254.346 213.864L58.1469 249.896L57.2935 174.218L253.858 137.619L253.903 143.941L62.8577 179.328Z" fill="#1D1D1B"/>
<path fill-rule="evenodd" clip-rule="evenodd" d="M199.181 173.367L199.07 157L224.009 152.294L226.436 155.242L228.997 154.63L238.463 166.117L250.378 147.304L275.716 142.358L275.738 145.437L280.504 144.618L280.571 154.106C282.976 152.981 285.381 152.577 287.864 152.119L308.592 148.188C312.56 147.457 316.938 147.151 320.451 150.525C322.158 147.468 326.038 145.109 329.685 144.421L341.633 142.052L344.049 143.187L344.16 141.244L372.547 136.047L372.558 137.979C375.151 135.752 377.512 135.064 380.317 134.485L400.478 130.478C404.89 129.583 411.95 129.495 413.813 132.454C418.113 133.339 420.574 135.097 421.416 141.582L421.394 156.29L425.927 155.667L426.038 172.002L397.973 177.199L397.763 175.812C397.087 177.396 395.845 177.963 394.282 178.247L384.174 180.016C379.319 180.879 375.783 179.361 373.034 176.882L373.09 185.705C373.156 195.149 368.512 197.868 361.695 199.266L340.846 203.513C335.759 205.009 331.458 204.725 328.31 201.853C322.69 201.34 321.571 196.481 321.371 190.705C319.088 191.983 316.605 192.791 313.967 193.402L294.648 197.158C289.394 198.501 284.661 198.687 281.158 196.339L281.181 199.069L254.479 204.179L254.457 200.98L249.125 201.69L249.07 193.817L243.107 203.109L239.349 198.905L237.753 200.62L231.324 193.228L231.302 208.645L204.523 213.951L204.058 210.556L199.646 211.134L199.303 194.691L203.592 194.112L203.337 172.995L199.181 173.367Z" fill="#1D1D1B"/>
<path fill-rule="evenodd" clip-rule="evenodd" d="M158.68 149.575C159.954 148.701 161.728 149.04 162.581 150.263C163.468 151.518 163.157 153.265 161.883 154.106C160.608 154.98 158.879 154.674 157.981 153.418C157.094 152.195 157.405 150.459 158.68 149.575ZM166.671 131.494C168.068 130.926 169.719 131.592 170.329 133.011C170.905 134.387 170.229 136.014 168.833 136.582C167.392 137.182 165.74 136.527 165.175 135.108C164.554 133.721 165.23 132.105 166.671 131.494ZM190.369 103.946C191.932 103.935 193.184 105.191 193.195 106.697C193.206 108.204 191.965 109.471 190.402 109.482C188.873 109.493 187.587 108.237 187.576 106.73C187.576 105.223 188.85 103.957 190.369 103.946ZM177.046 116.688C178.564 116.404 180.061 117.376 180.349 118.883C180.681 120.346 179.684 121.809 178.165 122.104C176.68 122.431 175.195 121.448 174.862 119.953C174.574 118.479 175.561 117.005 177.046 116.688ZM205.199 93.9225C206.729 93.9116 208.015 95.1672 208.026 96.674C208.037 98.2135 206.762 99.4474 205.233 99.4583C203.703 99.4692 202.417 98.2463 202.406 96.7068C202.395 95.2109 203.67 93.9334 205.199 93.9225ZM223.455 86.6179C224.984 86.607 226.237 87.8299 226.248 89.3694C226.259 90.8762 225.018 92.1428 223.499 92.1537C221.936 92.1646 220.684 90.909 220.673 89.4022C220.651 87.8627 221.892 86.6289 223.455 86.6179ZM241.056 83.1021C242.619 83.0912 243.872 84.3141 243.883 85.8536C243.894 87.3604 242.652 88.5942 241.09 88.6051C239.56 88.616 238.274 87.3932 238.263 85.8973C238.252 84.3468 239.527 83.113 241.056 83.1021ZM258.99 83.1021C260.52 83.0912 261.772 84.3141 261.784 85.8536C261.795 87.3604 260.553 88.627 259.035 88.6379C257.505 88.6488 256.253 87.3932 256.241 85.8864C256.23 84.3469 257.472 83.113 258.99 83.1021ZM276.636 86.476C278.199 86.4651 279.452 87.688 279.463 89.2275C279.474 90.7343 278.232 91.9681 276.669 91.9681C275.14 91.979 273.854 90.7561 273.843 89.2602C273.832 87.7207 275.107 86.4869 276.636 86.476ZM294.792 93.6714C296.321 93.6605 297.607 94.9161 297.618 96.4229C297.629 97.9297 296.355 99.1962 294.825 99.2071C293.296 99.2181 292.01 97.9624 291.999 96.4556C291.988 94.9598 293.262 93.6823 294.792 93.6714ZM309.744 103.706C311.274 103.695 312.56 104.918 312.571 106.457C312.582 107.964 311.307 109.23 309.778 109.241C308.215 109.252 306.962 107.997 306.951 106.49C306.94 104.95 308.181 103.706 309.744 103.706ZM322.269 116.317C323.799 116.306 325.085 117.561 325.096 119.068C325.107 120.608 323.832 121.842 322.303 121.852C320.74 121.863 319.487 120.64 319.476 119.101C319.465 117.594 320.706 116.328 322.269 116.317Z" fill="#1D1D1B"/>
<path fill-rule="evenodd" clip-rule="evenodd" d="M83.2524 179.394L115.529 173.181L115.551 176.38L120.606 175.714L120.717 191.885L116.627 192.977L116.615 202.749L131.767 199.288C130.781 183.281 135.503 180.486 145.157 178.608L163.956 174.972C168.245 174.109 175.306 173.793 176.979 177.068C182.111 176.642 184.317 182.68 184.35 186.709L184.561 200.904L189.006 200.085L189.116 216.495L160.852 222.053L160.919 220.59C160.198 221.42 159.278 222.064 158.203 222.544L147.141 224.63C144.448 224.805 142.164 224.543 140.191 223.8L140.202 226.213L88.8942 236.225L88.595 232.863L83.8177 233.561L83.7069 217.151L88.074 216.255L87.941 195.182L83.5739 195.881L83.2524 179.394Z" fill="#1D1D1B"/>
<path fill-rule="evenodd" clip-rule="evenodd" d="M391.589 172.024L391.534 162.732C393.418 162.361 395.302 162 395.302 162L395.236 157.851L391.512 158.583L391.456 150.481L395.302 149.75L395.147 144.17L391.423 144.825L391.356 134.944L401.942 132.826C409.035 131.439 413.536 132.116 413.713 139.825L414.112 157.098L418.402 156.202L418.557 167.634L395.347 171.936L395.324 168.573C394.194 170.026 392.952 171.139 391.589 172.024ZM391.356 134.933L391.423 144.814L387.577 145.546L387.643 149.619L371.283 152.763L371.327 146.594C371.327 140.785 377.014 137.739 382.5 136.68L391.356 134.933ZM391.456 150.47L381.99 152.272C374.209 153.779 370.54 156.334 370.086 160.734L370.141 169.949C370.441 172.799 371.871 175.867 376.515 175.245L385.582 174.12C387.743 173.869 389.749 173.181 391.589 172.024L391.534 162.732C389.605 163.103 387.688 163.463 387.721 163.463L387.854 159.271L391.5 158.572L391.456 150.47ZM370.02 150.416L369.942 138.875H370.02L370.097 150.383L370.02 150.416ZM369.942 138.864L370.02 150.405L365.253 151.344L365.453 182.385C365.508 190.411 362.272 193.675 355.1 195.029L344.116 197.071L344.05 187.539L347.175 187.08L347.109 177.548L343.994 180.42L343.928 170.659L346.898 170.091L346.798 154.903L343.828 155.438L343.761 145.677C345.291 146.343 346.898 147.042 346.898 147.118L346.876 143.482L369.942 138.864ZM370.086 160.734C370.053 161.094 370.053 161.443 370.053 161.804L370.097 168.803C370.097 169.163 370.097 169.556 370.141 169.949L370.086 160.734ZM343.772 145.677L343.839 155.438L340.913 155.973L341.013 171.27L343.939 170.659L344.005 180.42L341.888 182.451L331.347 184.493C326.902 185.355 322.558 184.515 322.48 178.739L322.258 157.305C322.17 150.47 326.326 147.631 332.5 146.365L341.201 144.53C341.201 144.541 342.442 145.087 343.772 145.677ZM344.05 187.55L341.168 187.965L341.146 184.209L324.231 187.441L324.264 192.813C324.32 200.838 330.05 199.692 336.745 198.469L344.116 197.082L344.05 187.55ZM297.552 190.607L297.485 180.442L301.21 179.71L301.265 175.758L319.543 172.318L319.654 177.374C319.787 184.929 314.145 187.408 308.37 188.522L297.552 190.607ZM297.452 174.95L319.698 170.812L319.443 156.574C319.321 150.568 313.934 149.531 308.847 150.514L297.297 152.763L297.363 162.961L301.088 162.186L301.11 165.986L297.386 166.761L297.452 174.95ZM154.445 189.264L158.17 188.565L158.325 194.145L154.479 194.876L154.534 202.978L158.258 202.246L158.325 206.396C158.325 206.396 156.441 206.767 154.556 207.127L154.623 216.463C155.986 215.578 157.216 214.432 158.336 212.958L158.358 216.353L181.568 212.051L181.413 200.62L177.123 201.482L176.736 184.209C176.569 176.5 172.069 175.812 164.964 177.243L154.379 179.328L154.445 189.264ZM297.297 152.774L297.363 162.972L293.672 163.747L293.617 167.547L297.386 166.772L297.441 174.961L293.75 175.66L293.783 181.195L297.474 180.464L297.541 190.629L288.042 192.474C280.305 193.948 275.284 193.304 275.306 185.399L275.339 165.549C275.339 159.86 280.615 155.351 286.59 154.881L297.297 152.774ZM201.852 170.571L201.774 159.03L222.745 155.143L237.476 172.766L252.174 149.466L273.344 145.459L273.422 156.65L268.767 157.589L268.944 184.198L273.355 183.019L273.433 194.876L251.908 198.687L251.753 175.081L237.642 196.481L223.965 180.355L224.12 204.354L201.996 208.601L201.919 196.7L206.452 196.001L206.286 169.982L201.852 170.571ZM134.306 197.18L150.666 194.036L150.599 189.963L154.445 189.264L154.379 179.339L145.523 181.097C140.036 182.2 134.35 185.235 134.35 191.055L134.306 197.18ZM154.479 194.876L154.534 202.978L150.887 203.71L150.754 207.859C150.71 207.859 152.639 207.487 154.567 207.127L154.634 216.463C152.794 217.62 150.788 218.264 148.626 218.515L139.56 219.716C134.228 220.382 133.153 216.201 133.131 213.198L133.086 206.199C133.053 201.176 136.644 198.305 145.024 196.678L154.479 194.876ZM86.0678 192.78L85.9902 181.348L113.213 176.195L113.29 187.823L109.001 188.325L109.178 214.89L115.23 213.591L115.54 205.249L132.455 202.094L132.577 221.551L86.4003 230.744L86.3228 219.159L90.6899 218.537L90.5125 192.169L86.0678 192.78Z" fill="white"/>
<path fill-rule="evenodd" clip-rule="evenodd" d="M395.247 166.346L395.225 163.343L396.544 163.103L396.732 160.646L399.736 160.352L399.769 165.33L395.247 166.346ZM395.169 153.888L395.147 151.038L396.466 150.754L396.643 147.151L399.57 146.583L399.536 152.949L395.169 153.888ZM395.069 138.503L395.047 135.654L402.307 134.223C409.279 132.957 411.263 134.955 411.629 136.221C408.703 136.123 405.688 136.374 402.607 137.029L395.069 138.503ZM347.574 149.728L351.232 151.213L351.21 147.096L368.689 143.504L368.667 140.654L348.184 144.585L348.217 149.291L347.574 149.018V149.728ZM395.047 135.664L395.069 138.514L387.732 139.901C381.835 141.004 375.307 143.384 375.761 150.492L372.713 150.983L372.524 146.954C372.336 142.521 376.925 139.18 381.414 138.318L395.047 135.664ZM395.147 151.038L395.169 153.888L385.105 156.05C379.374 157.305 374.209 158.648 374.442 164.501L374.786 173.825C374.265 173.792 373.622 173.552 372.89 173.126L372.768 161.345L371.327 161.433C371.571 156.05 375.827 155.154 379.308 154.379L395.147 151.038ZM395.225 163.343L390.979 164.086L390.758 167.329L395.247 166.357L395.225 163.343ZM347.84 190.804L347.818 187.878L348.383 187.714L348.428 182.222L351.498 179.35L351.564 190.181L347.84 190.804ZM347.74 174.273L347.718 171.39L348.361 171.303L348.272 157.698L351.276 157.163L351.387 173.498L347.74 174.273ZM326.925 183.466L326.769 158.987C326.747 155.307 330.294 151.333 333.896 150.558L344.315 148.439L347.574 149.728V149.018L341.378 146.288L332.156 147.85C327.102 148.669 323.644 152.807 323.666 156.836L323.644 178.193C323.621 181.905 326.925 183.303 326.925 183.466ZM347.718 171.39L347.74 174.273L344.216 175.004L344.038 171.958L347.718 171.39ZM347.829 187.878L347.851 190.804L344.482 191.415L344.46 188.729L347.829 187.878ZM307.228 179.121L307.206 176.195L318.512 174.229L318.523 176.686L307.228 179.121ZM307.073 155.274L307.051 152.152L309.334 151.704C313.225 150.929 316.683 151.977 317.337 153.942C315.685 153.8 313.845 154.008 311.518 154.456L307.073 155.274ZM339.76 188.522L339.749 186.065L325.362 188.762L325.55 193.817C325.683 196.307 326.902 197.409 328.631 197.912L328.709 190.76L339.76 188.522ZM307.051 152.152L307.073 155.274L301.054 156.377L301.032 153.331L307.051 152.152ZM307.206 176.195L307.228 179.121L305.71 179.448L305.732 183.281L301.243 184.056L301.221 181.097L302.661 180.813L302.639 177.013L307.206 176.195ZM301.154 170.386L301.132 167.416L302.495 167.176L302.484 164.806L305.455 164.239L305.488 169.501L301.154 170.386ZM301.032 153.342L301.054 156.388L288.873 158.681C283.497 159.664 279.795 163.758 279.828 169.097L279.972 191.557C278.642 191.284 276.869 189.515 276.847 185.443L276.658 168.879C276.57 160.777 279.839 157.469 287.332 156.006L301.032 153.342ZM301.132 167.416L296.842 168.279L296.865 171.281L301.154 170.386L301.132 167.416ZM301.221 181.097L297.009 181.992L297.031 184.766L301.243 184.067L301.221 181.097ZM254.645 197.006L254.523 178.225L256.075 175.801L256.208 196.722L254.645 197.006ZM254.368 155.93L254.335 150.317L271.892 146.965L271.914 149.739L256.319 152.763L254.368 155.93ZM254.335 150.317L254.368 155.93L241.622 176.85L238.706 173.312L253.005 150.568L254.335 150.317ZM254.523 178.225L254.645 197.006L253.238 197.213L252.972 180.649L254.523 178.225ZM158.28 210.752L158.258 207.749L159.577 207.542L159.766 205.053L162.769 204.758L162.803 209.78L158.28 210.752ZM158.192 198.294L158.17 195.488L159.489 195.204L159.666 191.601L162.592 191.033L162.559 197.355L158.192 198.294ZM158.092 182.91L158.07 180.06L165.33 178.629C172.302 177.396 174.286 179.361 174.652 180.628C171.725 180.573 168.71 180.78 165.629 181.479L158.092 182.91ZM226.891 181.807L227.334 181.326L238.097 193.916L237.62 194.429L226.891 181.807ZM207.638 172.711L207.793 197.027L203.304 198.086L203.359 206.745L206.13 206.297L206.086 200.325L210.619 199.746L210.442 172.144L207.638 172.711ZM203.115 168.748L203.06 160.286L222.147 156.53L224.486 158.888L206.208 162.568L206.241 168.268L203.115 168.748ZM158.081 180.071L158.103 182.92L150.765 184.307C144.869 185.454 138.34 187.79 138.795 194.898L135.746 195.433L135.558 191.404C135.37 186.982 139.958 183.63 144.447 182.724L158.081 180.071ZM158.181 195.488L158.203 198.294L148.138 200.489C142.408 201.711 137.243 203.087 137.476 208.94L137.819 218.231C137.298 218.199 136.655 217.958 135.924 217.576L135.802 205.795L134.361 205.839C134.605 200.456 138.861 199.56 142.341 198.829L158.181 195.488ZM158.258 207.749L154.013 208.492L153.791 211.735L158.28 210.752L158.258 207.749ZM112.514 215.742L112.536 218.428L119.83 217.314L119.774 208.656L131.036 206.603L131.014 203.677L116.538 206.374L116.593 215.032L112.514 215.742ZM91.909 194.964L92.0641 219.52L87.697 220.415L87.7524 228.833L90.601 228.418L90.5678 222.566L95.2231 221.987L95.0458 194.549L91.909 194.964ZM87.3645 182.527L87.4199 191.142L90.3461 190.727L90.3129 185.071L111.794 180.507L111.772 177.854L87.3645 182.527Z" fill="#A5A4A4"/>
</svg>
