<svg width="131" height="33" viewBox="0 0 131 33" fill="none" xmlns="http://www.w3.org/2000/svg">
<rect x="0.25" y="0.25" width="130.5" height="32.5" rx="2.75" stroke="#F85858" stroke-width="0.5"/>
<path d="M38.0703 14.9844H36.9062L36.6172 13.3594C36.3828 13.1615 36.0703 12.9974 35.6797 12.8672C35.2891 12.737 34.8359 12.6719 34.3203 12.6719C33.5026 12.6719 32.875 12.8464 32.4375 13.1953C32 13.5391 31.7812 13.9896 31.7812 14.5469C31.7812 15.0417 32.0026 15.4557 32.4453 15.7891C32.8932 16.1172 33.6146 16.4062 34.6094 16.6562C35.8073 16.9531 36.7161 17.3906 37.3359 17.9688C37.9609 18.5469 38.2734 19.263 38.2734 20.1172C38.2734 21.0339 37.8984 21.7708 37.1484 22.3281C36.4036 22.8854 35.4271 23.1641 34.2188 23.1641C33.3438 23.1641 32.5651 23.0208 31.8828 22.7344C31.2057 22.4479 30.6536 22.0729 30.2266 21.6094V19.4922H31.3828L31.6797 21.125C31.9766 21.3698 32.3307 21.5703 32.7422 21.7266C33.1536 21.8828 33.6458 21.9609 34.2188 21.9609C34.9948 21.9609 35.6068 21.7969 36.0547 21.4688C36.5078 21.1406 36.7344 20.6953 36.7344 20.1328C36.7344 19.612 36.5391 19.1771 36.1484 18.8281C35.7578 18.474 35.0677 18.1771 34.0781 17.9375C32.875 17.651 31.9349 17.2292 31.2578 16.6719C30.5807 16.1146 30.2422 15.4141 30.2422 14.5703C30.2422 13.6797 30.6198 12.9401 31.375 12.3516C32.1302 11.7578 33.112 11.4609 34.3203 11.4609C35.1172 11.4609 35.8411 11.599 36.4922 11.875C37.1484 12.1458 37.6745 12.4766 38.0703 12.8672V14.9844ZM39.7266 22.0156L41 21.7969V15.7578L39.7266 15.5391V14.5469H42.5391V21.7969L43.8125 22.0156V23H39.7266V22.0156ZM42.5391 12.3828H41V10.8125H42.5391V12.3828ZM45 18.9297C45 17.5703 45.2969 16.474 45.8906 15.6406C46.4844 14.8073 47.3047 14.3906 48.3516 14.3906C48.8828 14.3906 49.349 14.4948 49.75 14.7031C50.151 14.9115 50.487 15.2135 50.7578 15.6094L50.8984 14.5469H52.1953V22.8906C52.1953 23.9844 51.8906 24.8438 51.2812 25.4688C50.6719 26.099 49.8047 26.4141 48.6797 26.4141C48.2734 26.4141 47.8333 26.3568 47.3594 26.2422C46.8854 26.1328 46.4688 25.9818 46.1094 25.7891L46.5078 24.5938C46.7943 24.7448 47.1328 24.8698 47.5234 24.9688C47.9141 25.0677 48.2943 25.1172 48.6641 25.1172C49.3516 25.1172 49.8542 24.9245 50.1719 24.5391C50.4948 24.1536 50.6562 23.6042 50.6562 22.8906V22.0859C50.3802 22.4401 50.0495 22.7083 49.6641 22.8906C49.2786 23.0729 48.8359 23.1641 48.3359 23.1641C47.2995 23.1641 46.4844 22.7891 45.8906 22.0391C45.2969 21.2891 45 20.3073 45 19.0938V18.9297ZM46.5391 19.0938C46.5391 19.9427 46.7188 20.625 47.0781 21.1406C47.4375 21.6562 47.9844 21.9141 48.7188 21.9141C49.1823 21.9141 49.5703 21.8099 49.8828 21.6016C50.1953 21.388 50.4531 21.0885 50.6562 20.7031V16.8125C50.4583 16.4531 50.2005 16.1693 49.8828 15.9609C49.5651 15.7474 49.1823 15.6406 48.7344 15.6406C48 15.6406 47.4505 15.9479 47.0859 16.5625C46.7214 17.1771 46.5391 17.9661 46.5391 18.9297V19.0938ZM60.1016 21.75C59.8359 22.2031 59.4922 22.5521 59.0703 22.7969C58.6536 23.0417 58.1719 23.1641 57.625 23.1641C56.7083 23.1641 55.9922 22.8698 55.4766 22.2812C54.9609 21.6927 54.7031 20.776 54.7031 19.5312V15.7578L53.7344 15.5391V14.5469H54.7031H56.2422V19.5469C56.2422 20.4479 56.375 21.0677 56.6406 21.4062C56.9062 21.7448 57.3203 21.9141 57.8828 21.9141C58.4297 21.9141 58.8802 21.8047 59.2344 21.5859C59.5938 21.362 59.8646 21.0469 60.0469 20.6406V15.7578L58.9141 15.5391V14.5469H60.0469H61.5859V21.7969L62.5547 22.0156V23H60.2031L60.1016 21.75ZM63.7734 22.0156L65.0469 21.7969V15.7578L63.7734 15.5391V14.5469H66.5859V21.7969L67.8594 22.0156V23H63.7734V22.0156ZM66.5859 12.3828H65.0469V10.8125H66.5859V12.3828ZM72.8984 23.1641C71.7214 23.1641 70.7839 22.7734 70.0859 21.9922C69.3932 21.2057 69.0469 20.1875 69.0469 18.9375V18.5938C69.0469 17.3906 69.4036 16.3906 70.1172 15.5938C70.8359 14.7917 71.6849 14.3906 72.6641 14.3906C73.7995 14.3906 74.6589 14.7344 75.2422 15.4219C75.8307 16.1094 76.125 17.026 76.125 18.1719V19.1328H70.6406L70.6172 19.1719C70.6328 19.9844 70.8385 20.6536 71.2344 21.1797C71.6302 21.7005 72.1849 21.9609 72.8984 21.9609C73.4193 21.9609 73.875 21.888 74.2656 21.7422C74.6615 21.5911 75.0026 21.3854 75.2891 21.125L75.8906 22.125C75.5885 22.4167 75.1875 22.6641 74.6875 22.8672C74.1927 23.0651 73.5964 23.1641 72.8984 23.1641ZM72.6641 15.6016C72.1484 15.6016 71.7083 15.8203 71.3438 16.2578C70.9792 16.6901 70.7552 17.2344 70.6719 17.8906L70.6875 17.9297H74.5859V17.7266C74.5859 17.1224 74.4245 16.6172 74.1016 16.2109C73.7786 15.8047 73.2995 15.6016 72.6641 15.6016ZM77.4219 22.0156L78.6953 21.7969V15.7578L77.4219 15.5391V14.5469H80.0703L80.1797 15.8047C80.4609 15.3568 80.8125 15.0104 81.2344 14.7656C81.6615 14.5156 82.1458 14.3906 82.6875 14.3906C83.599 14.3906 84.3047 14.6589 84.8047 15.1953C85.3047 15.7266 85.5547 16.5495 85.5547 17.6641V21.7969L86.8281 22.0156V23H82.7422V22.0156L84.0156 21.7969V17.6953C84.0156 16.9505 83.8672 16.4219 83.5703 16.1094C83.2786 15.7969 82.8307 15.6406 82.2266 15.6406C81.7839 15.6406 81.3906 15.7474 81.0469 15.9609C80.7083 16.1745 80.4375 16.4661 80.2344 16.8359V21.7969L81.5078 22.0156V23H77.4219V22.0156ZM90.6328 12.5078V14.5469H92.2344V15.6875H90.6328V20.8203C90.6328 21.2161 90.7135 21.4948 90.875 21.6562C91.0417 21.8177 91.2604 21.8984 91.5312 21.8984C91.6667 21.8984 91.8177 21.888 91.9844 21.8672C92.1562 21.8411 92.2995 21.8151 92.4141 21.7891L92.625 22.8438C92.4792 22.9375 92.2656 23.013 91.9844 23.0703C91.7031 23.1328 91.4219 23.1641 91.1406 23.1641C90.5156 23.1641 90.0182 22.9766 89.6484 22.6016C89.2786 22.2214 89.0938 21.6276 89.0938 20.8203V15.6875H87.7578V14.5469H89.0938V12.5078H90.6328ZM97.6641 23.1641C96.487 23.1641 95.5495 22.7734 94.8516 21.9922C94.1589 21.2057 93.8125 20.1875 93.8125 18.9375V18.5938C93.8125 17.3906 94.1693 16.3906 94.8828 15.5938C95.6016 14.7917 96.4505 14.3906 97.4297 14.3906C98.5651 14.3906 99.4245 14.7344 100.008 15.4219C100.596 16.1094 100.891 17.026 100.891 18.1719V19.1328H95.4062L95.3828 19.1719C95.3984 19.9844 95.6042 20.6536 96 21.1797C96.3958 21.7005 96.9505 21.9609 97.6641 21.9609C98.1849 21.9609 98.6406 21.888 99.0312 21.7422C99.4271 21.5911 99.7682 21.3854 100.055 21.125L100.656 22.125C100.354 22.4167 99.9531 22.6641 99.4531 22.8672C98.9583 23.0651 98.362 23.1641 97.6641 23.1641ZM97.4297 15.6016C96.9141 15.6016 96.474 15.8203 96.1094 16.2578C95.7448 16.6901 95.5208 17.2344 95.4375 17.8906L95.4531 17.9297H99.3516V17.7266C99.3516 17.1224 99.1901 16.6172 98.8672 16.2109C98.5443 15.8047 98.0651 15.6016 97.4297 15.6016Z" fill="white"/>
</svg>
