<svg width="71" height="71" viewBox="0 0 71 71" fill="none" xmlns="http://www.w3.org/2000/svg">
<g filter="url(#filter0_d_1803:8803)">
<path d="M54.4 11.9994V4.2C54.4 1.8804 52.5196 0 50.2 0H20.8C18.4804 0 16.6 1.8804 16.6 4.2V11.9994C7.4902 14.8565 4.3297 19.11 4.1974 19.2948C4.07756 19.4742 4.00928 19.683 4 19.8986V19.9636V51.45C3.99992 51.67 4.06898 51.8845 4.1974 52.0632C4.294 52.1965 6.6271 55.3686 13.0415 58.0776C13.3659 58.2146 13.7373 58.1798 14.0307 57.9851C14.324 57.7904 14.5003 57.4616 14.5 57.1095V46.4709C15.1825 46.2007 15.8825 45.9473 16.6 45.7107V58.8C16.6 61.1196 18.4804 63 20.8 63H50.2C52.5196 63 54.4 61.1196 54.4 58.8V45.7107C55.1182 45.9494 55.8182 46.2049 56.5 46.4772V57.1095C56.4997 57.4616 56.676 57.7904 56.9693 57.9851C57.2627 58.1798 57.6341 58.2146 57.9584 58.0776C64.3729 55.3686 66.706 52.1976 66.8026 52.0632C66.9314 51.8689 67 51.6411 67 51.408C67 51.387 67 51.366 67 51.345C67 51.324 67 51.303 67 51.282V19.908C67.0004 19.6881 66.9317 19.4736 66.8036 19.2948C66.6703 19.11 63.5098 14.8565 54.4 11.9994ZM12.4 45.7401V55.4841C10.0344 54.4357 7.89477 52.938 6.1 51.0741V22.4795C8.01278 24.0383 10.1331 25.3236 12.4 26.2983V45.7401ZM16.6 43.5046C15.886 43.7293 15.186 43.9688 14.5 44.2228V25.6095C14.4999 25.1875 14.2472 24.8066 13.8584 24.6424C11.0992 23.5701 8.57598 21.969 6.43075 19.929C7.56055 18.774 10.6045 16.1847 16.6 14.197V43.5046ZM43.5766 2.1L42.2305 3.5364C41.8327 3.95923 41.2781 4.1993 40.6975 4.2H30.3025C29.7221 4.20001 29.1676 3.9598 28.7705 3.5364L27.4244 2.1H43.5766ZM52.3 58.8C52.3 59.9598 51.3598 60.9 50.2 60.9H20.8C19.6402 60.9 18.7 59.9598 18.7 58.8V57.1662C19.3356 57.5441 20.0605 57.7456 20.8 57.75H50.2C50.9395 57.7456 51.6644 57.5441 52.3 57.1662V58.8ZM52.3 53.55C52.3 54.7098 51.3598 55.65 50.2 55.65H20.8C19.6402 55.65 18.7 54.7098 18.7 53.55V4.2C18.7 3.0402 19.6402 2.1 20.8 2.1H24.5453L27.2386 4.97175C28.0332 5.81779 29.1418 6.29837 30.3025 6.3H40.6975C41.8582 6.29781 42.9667 5.81778 43.7624 4.9728L46.4546 2.1H50.2C51.3598 2.1 52.3 3.0402 52.3 4.2V53.55ZM57.1415 24.6424C56.7528 24.8066 56.5001 25.1875 56.5 25.6095V44.2249C55.8206 43.9698 55.1182 43.7293 54.4 43.5046V14.197C60.3986 16.1857 63.4415 18.7803 64.5692 19.929C62.4241 21.9691 59.9009 23.5703 57.1415 24.6424ZM64.9 50.9796L64.8905 51.0069C64.8792 51.0413 64.8697 51.0764 64.8622 51.1119C63.0725 52.955 60.9469 54.439 58.6 55.4841V26.2941C60.8669 25.3194 62.9872 24.0341 64.9 22.4753V50.9796Z" fill="white"/>
<path d="M26.05 32.5502C27.7962 32.549 29.3595 31.4674 29.9763 29.8338C30.5932 28.2001 30.1348 26.3552 28.8251 25.2002C30.1482 24.0305 30.5983 22.1581 29.9513 20.5148C29.3043 18.8716 27.6985 17.8086 25.9331 17.855C24.1677 17.9013 22.6199 19.047 22.06 20.7219C21.9414 21.0783 22.022 21.4708 22.2714 21.7517C22.5207 22.0325 22.901 22.159 23.2689 22.0835C23.6368 22.008 23.9364 21.7419 24.055 21.3855C24.3944 20.3683 25.4456 19.7702 26.4935 19.9982C27.5413 20.2262 28.249 21.2069 28.1351 22.2732C28.0213 23.3395 27.1223 24.1487 26.05 24.1502C25.4701 24.1502 25 24.6203 25 25.2002C25 25.7801 25.4701 26.2502 26.05 26.2502C27.1223 26.2517 28.0213 27.0609 28.1351 28.1271C28.249 29.1934 27.5413 30.1742 26.4935 30.4022C25.4456 30.6301 24.3944 30.032 24.055 29.0148C23.9364 28.6585 23.6368 28.3924 23.2689 28.3169C22.901 28.2413 22.5207 28.3678 22.2714 28.6487C22.022 28.9295 21.9414 29.3221 22.06 29.6784C22.6307 31.3966 24.2395 32.5545 26.05 32.5502Z" fill="white"/>
<path d="M39.7 27.8249C39.8335 25.3643 37.9593 23.2558 35.5 23.0999C35.0215 23.106 34.5485 23.2036 34.1067 23.3876C34.5409 21.867 35.5797 20.5911 36.9805 19.8575C37.5018 19.6152 37.7314 18.9989 37.4957 18.4747C37.2601 17.9505 36.6467 17.7131 36.1195 17.9423C31.3546 20.0811 31.3 27.0059 31.3 27.2999C31.3065 27.3545 31.3174 27.4086 31.3326 27.4616C31.3242 27.5834 31.3 27.701 31.3 27.8249C31.1666 30.2854 33.0408 32.3939 35.5 32.5499C37.9593 32.3939 39.8335 30.2854 39.7 27.8249ZM35.5 30.4499C34.206 30.2856 33.2762 29.1234 33.4 27.8249C33.2762 26.5263 34.206 25.3641 35.5 25.1999C36.7941 25.3641 37.7238 26.5263 37.6 27.8249C37.7238 29.1234 36.7941 30.2856 35.5 30.4499Z" fill="white"/>
<path d="M44.95 17.8501C42.6304 17.8501 40.75 19.7305 40.75 22.0501V28.3501C40.75 30.6697 42.6304 32.5501 44.95 32.5501C47.2696 32.5501 49.15 30.6697 49.15 28.3501V22.0501C49.15 19.7305 47.2696 17.8501 44.95 17.8501ZM47.05 28.3501C47.05 29.5099 46.1098 30.4501 44.95 30.4501C43.7902 30.4501 42.85 29.5099 42.85 28.3501V22.0501C42.85 20.8903 43.7902 19.9501 44.95 19.9501C46.1098 19.9501 47.05 20.8903 47.05 22.0501V28.3501Z" fill="white"/>
<path d="M33.4609 36.7888C30.3116 36.7757 27.2795 37.982 25 40.1551V38.8499C25 38.27 24.5299 37.7999 23.95 37.7999C23.3701 37.7999 22.9 38.27 22.9 38.8499V43.0499C22.9 43.6298 23.3701 44.0999 23.95 44.0999H28.15C28.7299 44.0999 29.2 43.6298 29.2 43.0499C29.2 42.47 28.7299 41.9999 28.15 41.9999H26.1088C27.9939 40.0181 30.6071 38.893 33.3423 38.8856C33.9222 38.9184 34.4188 38.4749 34.4516 37.895C34.4844 37.3151 34.0408 36.8184 33.4609 36.7856V36.7888Z" fill="white"/>
<path d="M47.05 37.8001C46.4701 37.8001 46 38.2702 46 38.8501V40.1531C43.7197 37.9822 40.6876 36.7781 37.5391 36.7931C37.164 36.8141 36.8286 37.0337 36.6592 37.369C36.4898 37.7044 36.5122 38.1047 36.718 38.419C36.9237 38.7334 37.2816 38.9141 37.6567 38.8931C40.3892 38.8989 43.0005 40.0213 44.8849 42.0001H42.85C42.2701 42.0001 41.8 42.4702 41.8 43.0501C41.8 43.63 42.2701 44.1001 42.85 44.1001H47.05C47.6299 44.1001 48.1 43.63 48.1 43.0501V38.8501C48.1 38.2702 47.6299 37.8001 47.05 37.8001Z" fill="white"/>
</g>
<defs>
<filter id="filter0_d_1803:8803" x="0" y="0" width="71" height="71" filterUnits="userSpaceOnUse" color-interpolation-filters="sRGB">
<feFlood flood-opacity="0" result="BackgroundImageFix"/>
<feColorMatrix in="SourceAlpha" type="matrix" values="0 0 0 0 0 0 0 0 0 0 0 0 0 0 0 0 0 0 127 0" result="hardAlpha"/>
<feOffset dy="4"/>
<feGaussianBlur stdDeviation="2"/>
<feComposite in2="hardAlpha" operator="out"/>
<feColorMatrix type="matrix" values="0 0 0 0 0 0 0 0 0 0 0 0 0 0 0 0 0 0 0.25 0"/>
<feBlend mode="normal" in2="BackgroundImageFix" result="effect1_dropShadow_1803:8803"/>
<feBlend mode="normal" in="SourceGraphic" in2="effect1_dropShadow_1803:8803" result="shape"/>
</filter>
</defs>
</svg>
