<svg width="50" height="30" viewBox="0 0 183 39" fill="none" xmlns="http://www.w3.org/2000/svg">
<g clip-path="url(#clip0)">
<path fill-rule="evenodd" clip-rule="evenodd" d="M64.8931 8.53101L66.4741 0.0400391L79.6692 0.0559082L80.613 1.82397L81.9841 1.76099L85.6692 8.64502L93.6321 0.0690918L107.055 0.000976562L106.755 1.60107L109.273 1.64502L108.356 6.56714C109.642 6.28977 110.96 6.18607 112.274 6.25903H123.246C125.346 6.26903 127.606 6.53992 129.062 8.63892C129.747 7.91843 130.573 7.34649 131.489 6.95825C132.404 6.57002 133.39 6.37393 134.384 6.38208L140.718 6.33008L141.838 7.15503L142.085 6.15991L157.092 6.26001L156.905 7.26611C158.213 6.51563 159.708 6.15269 161.214 6.21997L171.905 6.13306C174.245 6.10006 177.858 6.75206 178.517 8.46606C180.622 9.34706 181.701 10.5031 181.485 13.9441L180.002 21.5601L182.378 21.6841L180.801 30.155L165.96 30.085L165.991 29.3479C165.771 29.6709 165.467 29.9275 165.112 30.0894C164.756 30.2512 164.363 30.3125 163.975 30.2661L158.641 30.187C157.592 30.2079 156.553 29.9709 155.617 29.4968C154.68 29.0228 153.874 28.3261 153.27 27.468L152.419 32.04C151.506 36.94 148.868 37.8949 145.252 37.9399L134.19 38.0881C131.442 38.3631 129.279 37.7879 127.958 35.9939C125.14 35.1739 125.058 32.5471 125.532 29.5381C124.221 29.9549 122.857 30.1796 121.482 30.2051L111.246 30.2529C108.434 30.4279 105.997 30.0601 104.44 28.4971L104.176 29.9131L90.04 29.9341L90.3491 28.2729L87.5581 28.113L88.3181 24.031L84.3481 28.2581L82.8481 25.709L81.864 26.436L79.3201 21.9751L77.771 29.9631L63.571 30.0781L63.6711 28.27L61.3611 28.1379L62.8271 19.584L65.074 19.7051L67.053 8.74097L64.8931 8.53101Z" fill="#00BAFF"/>
<path fill-rule="evenodd" clip-rule="evenodd" d="M5.12891 0.248047L22.219 0.206055L21.9099 1.86694L24.5549 2.02002L22.9929 10.406L20.7979 10.572L19.813 15.6292L27.8909 15.3291C28.9909 6.9391 31.673 5.95396 36.791 5.92896L46.75 5.89404C49.026 5.87304 52.662 6.40301 53.186 8.26001C55.851 8.54401 56.3708 11.889 55.9858 13.979L54.678 21.354L57.03 21.3682L55.4458 29.8792L40.4668 29.979L40.6479 29.229C40.1835 29.5924 39.6436 29.8473 39.0679 29.9751L33.2139 29.967C31.9919 29.8508 30.8098 29.4707 29.749 28.853L29.5159 30.106L2.32788 30.2432L2.51099 28.4731L0.00488281 28.366L1.58984 19.855L3.90991 19.821L5.94482 8.88818L3.64502 8.82007L5.12891 0.248047Z" fill="#00BAFF"/>
<path d="M52.3499 11.9464C53.0349 7.93637 50.8071 7.14119 47.0411 7.18319L41.431 7.22029L36.731 7.25936C33.819 7.28936 30.6151 8.30422 30.0311 11.3172L29.399 14.4884L38.0589 14.4652L38.4319 12.3512L40.4661 12.3673L42.439 12.3753L41.9629 15.2752H39.9229H34.9161C30.4771 15.2972 28.3549 16.4322 27.8709 19.0352L27.1951 22.6673C26.9051 24.2253 27.0361 26.4993 29.8221 26.6783L34.5679 26.9464C35.6801 27.043 36.7996 26.8809 37.8389 26.4732C38.6666 26.1254 39.4266 25.6346 40.084 25.0233L39.7559 26.7862L52.032 26.8443L53.0931 20.9112L50.8201 20.9332L52.3499 11.9464ZM40.7501 21.6283L38.7501 21.6392C37.7331 21.6392 36.713 21.6392 36.733 21.6392L37.2161 19.5013L39.15 19.4813L41.128 19.4661L40.7501 21.6283Z" fill="white"/>
<path d="M154.419 13.4431L155.53 7.47534L155.49 7.46826L143.266 7.59131L142.915 9.47729C142.448 9.09928 141.96 8.74661 141.455 8.42114L140.255 7.58228L135.634 7.67627C132.356 7.72327 129.952 8.78121 129.314 12.3352L127.285 23.4573C126.747 26.4573 128.879 27.3202 131.235 27.3132L136.821 27.2922L138.101 26.4492L139.977 25.2693L139.056 30.2112L137.413 30.1414L135.899 30.0713L136.262 28.1233L127.304 28.1292L126.784 30.9202C126.009 35.0822 129.049 35.0561 132.584 35.0781H136.484L142.295 35.0991C146.095 35.1041 148.066 33.7333 148.842 29.5693L151.842 13.4692L154.371 13.4543L154.419 13.4431ZM140.613 21.3762H139.041L137.486 21.4053L138.963 13.4692L140.511 13.4802L142.079 13.4983L140.613 21.3762Z" fill="white"/>
<path d="M19.021 16.8201L18.03 21.1121L14.812 21.1912L17.3779 7.41016L19.6169 7.57422L20.74 1.54419L6.34009 1.53516L5.23999 7.46313L7.573 7.5791L5.02686 21.2581L2.73389 21.1492L1.61499 27.1602L26.0999 26.9441L27.979 16.8521L19.021 16.8201Z" fill="white"/>
<path d="M176.201 21.257L177.728 12.2661C178.41 8.25506 176.182 7.45988 172.421 7.48188L166.811 7.53999L162.111 7.57905C159.203 7.58905 156.002 8.60494 155.418 11.6149L154.782 14.809L163.445 14.7861L163.815 12.6711H165.855L167.822 12.6979L167.346 15.5981H165.309H160.299C156.181 15.6181 154.048 16.58 153.379 18.81C153.326 18.9899 153.284 19.173 153.253 19.3581L152.577 22.9899C152.536 23.1881 152.507 23.3886 152.489 23.59C152.356 25.09 152.777 26.8261 155.213 26.9621L159.95 27.2719C161.066 27.3602 162.187 27.192 163.228 26.78C164.053 26.4389 164.81 25.9545 165.466 25.3491L165.141 27.092L177.418 27.1501L178.482 21.215L176.201 21.257ZM166.12 21.947L164.125 21.958C163.106 21.958 162.086 21.958 162.108 21.958L162.592 19.799H164.526L166.501 19.7829L166.12 21.947Z" fill="white"/>
<path d="M104.445 7.17529L105.526 1.37012H94.3259L84.4929 11.9951L78.74 1.41919L67.6499 1.37012L66.5349 7.35815L68.845 7.49023L66.332 20.9902L63.948 20.9062L62.7981 27.0823L74.5181 27.0571L76.8359 14.6062L82.2009 24.3062L91.543 14.6062L89.2629 26.8491L100.631 26.9912L101.777 20.8381L99.4099 21.0132L101.98 7.21313L104.445 7.17529Z" fill="white"/>
<path d="M114.885 19.0281L126.654 19.0772L127.949 11.677C128.487 8.55305 125.842 7.48619 123.149 7.49419L117.031 7.52202L111.361 7.54814C108.261 7.20714 105.125 9.01906 104.552 11.9681L102.552 22.2481C101.746 26.3421 104.244 27.1702 108.341 27.1692L113.372 27.1512L119.105 27.1341C122.162 27.1341 125.29 26.3992 125.98 22.4722L126.428 19.8411L116.753 19.8221L116.331 21.865L114.354 21.8772L112.399 21.896L112.934 19.0242L114.885 19.0281ZM114.085 12.855L116.043 12.8162L118.024 12.7811L117.658 14.7491L115.677 14.7842L113.677 14.8162L114.085 12.855Z" fill="white"/>
</g>
<defs>
<clipPath id="clip0">
<rect width="182.38" height="38.157" fill="white"/>
</clipPath>
</defs>
</svg>
