<svg width="79" height="81" viewBox="0 0 79 81" fill="none" xmlns="http://www.w3.org/2000/svg">
<path d="M74.596 61.3146V56.3886C74.596 56.1448 74.4007 55.9478 74.1567 55.9478C73.9144 55.9478 73.7191 56.1432 73.7191 56.3886V61.3146C73.7191 61.5569 73.9144 61.7523 74.1567 61.7523C74.4007 61.7523 74.596 61.5567 74.596 61.3146Z" fill="white"/>
<path d="M39.1008 40.4932C38.1787 40.4932 37.4306 40.8859 37.4306 41.3683C37.4306 41.8527 38.1787 42.2438 39.1008 42.2438H73.8593C75.3626 42.2438 76.5887 43.4664 76.5887 44.9714V72.7247C76.5887 74.2314 75.3643 75.4558 73.8593 75.4558H39.0472C38.1253 75.4558 37.3769 75.0666 37.3769 74.5871C37.3769 74.1078 38.1253 73.7184 39.0472 73.7184H70.6138C70.8561 73.7184 71.0533 73.5231 71.0533 73.2808V44.4151C71.0533 44.1728 70.8578 43.9775 70.6138 43.9775H39.0472C38.1253 43.9775 37.3769 43.2292 37.3769 42.3072V19.4466C37.3769 16.9779 35.3674 14.9668 32.8954 14.9668H5.14221C2.67015 14.9668 0.660645 16.9761 0.660645 19.4466V76.5164C0.660645 78.9869 2.67015 80.9997 5.14221 80.9997H32.8954C34.5424 80.9997 35.9774 80.1026 36.7505 78.7731C37.2148 77.9762 38.0535 77.208 38.9754 77.208H73.8576C76.3282 77.208 78.3391 75.1985 78.3391 72.7247V44.9732C78.3391 42.5025 76.3298 40.4932 73.8576 40.4932H39.1008ZM39.0472 44.8546H68.5075C69.4295 44.8546 70.1778 45.6027 70.1778 46.5249V71.1763C70.1778 72.0983 69.4295 72.8466 68.5075 72.8466H39.0472C38.1253 72.8466 37.3769 72.0983 37.3769 71.1763V46.525C37.3769 45.6027 38.1235 44.8546 39.0472 44.8546ZM35.6245 76.5182C35.6245 78.0215 34.402 79.2458 32.8952 79.2458H5.14221C3.63892 79.2458 2.41285 78.023 2.41285 76.5182V19.4466C2.41285 17.9433 3.63717 16.7188 5.14221 16.7188H32.8954C34.4004 16.7188 35.6247 17.9433 35.6247 19.4466V76.5182H35.6245Z" fill="white"/>
<path d="M33.4516 22.2529H4.5843C4.34219 22.2529 4.14673 22.4484 4.14673 22.6905V72.7917C4.14673 73.0322 4.34219 73.2325 4.5843 73.2325H33.4516C33.6954 73.2325 33.8909 73.0338 33.8909 72.7917V22.6905C33.8909 22.4484 33.6956 22.2529 33.4516 22.2529ZM31.3435 72.3539H6.6939C5.77194 72.3539 5.02362 71.6056 5.02362 70.6836V24.8018C5.02362 23.8799 5.77194 23.1316 6.6939 23.1316H31.3435C32.2657 23.1316 33.0138 23.8799 33.0138 24.8018V70.6852C33.0138 71.6073 32.2672 72.3539 31.3435 72.3539Z" fill="white"/>
<path d="M16.5558 19.5853H21.4817C21.7256 19.5853 21.921 19.3898 21.921 19.1477C21.921 18.9054 21.7256 18.71 21.4817 18.71H16.5558C16.3119 18.71 16.1165 18.9054 16.1165 19.1477C16.1165 19.3882 16.3119 19.5853 16.5558 19.5853Z" fill="white"/>
<path d="M21.5418 74.2334H16.4956C15.46 74.2334 14.6165 75.0754 14.6165 76.1093V76.4132C14.6165 77.4471 15.46 78.2924 16.4956 78.2924H21.5418C22.5774 78.2924 23.421 77.4471 23.421 76.4132V76.1093C23.421 75.0752 22.5774 74.2334 21.5418 74.2334ZM22.5457 76.4132C22.5457 76.9643 22.0964 77.4154 21.5418 77.4154H16.4956C15.9444 77.4154 15.4918 76.9643 15.4918 76.4132V76.1093C15.4918 75.558 15.9444 75.1071 16.4956 75.1071H21.5418C22.0964 75.1071 22.5457 75.558 22.5457 76.1093V76.4132Z" fill="white"/>
<path d="M53.7167 23.013C53.7065 23.0914 54.0873 23.2051 54.5668 23.267C55.0496 23.3253 55.4453 23.3087 55.4554 23.2318C55.4655 23.1501 55.4737 23.0849 55.4737 23.0849C56.1101 17.9754 54.8074 12.8372 51.8072 8.61608C50.2205 6.38456 48.2361 4.52195 45.9176 3.08556C38.0953 -1.77192 28.0813 -0.783059 21.3665 5.2687C20.8854 5.69964 20.107 5.75484 19.5959 5.36059L18.1477 4.24142C17.6348 3.84716 17.2875 4.04595 17.371 4.68563L17.969 9.32755C18.0525 9.97072 18.6338 10.42 19.2752 10.3382L23.9171 9.74189C24.557 9.66346 24.6621 9.27585 24.1528 8.88334L22.8432 7.86933C22.3321 7.47508 22.2886 6.7837 22.7747 6.35923C28.9133 1.01579 37.9316 0.190603 44.9972 4.57208C47.1187 5.88986 48.9294 7.59369 50.3826 9.63499C53.1287 13.4968 54.3195 18.1957 53.7401 22.871L53.7167 23.013Z" fill="white"/>
</svg>
