<svg width="100" height="23" viewBox="0 0 100 23" fill="none" xmlns="http://www.w3.org/2000/svg">
<path d="M32.4375 19.1641C31.7448 19.1641 31.0781 19.0625 30.4375 18.8594C29.7969 18.6562 29.1849 18.3438 28.6016 17.9219V15.4922H29.7969L30.0547 17.2812C30.3932 17.4896 30.7604 17.651 31.1562 17.7656C31.5521 17.8802 31.9792 17.9375 32.4375 17.9375C33.2135 17.9375 33.8151 17.7656 34.2422 17.4219C34.6693 17.0729 34.8828 16.6172 34.8828 16.0547C34.8828 15.5339 34.6901 15.1016 34.3047 14.7578C33.9193 14.4141 33.2318 14.1302 32.2422 13.9062C31.0651 13.6354 30.1667 13.224 29.5469 12.6719C28.9271 12.1146 28.6172 11.4141 28.6172 10.5703C28.6172 9.97656 28.7734 9.44531 29.0859 8.97656C29.4036 8.50781 29.8438 8.13802 30.4062 7.86719C30.9688 7.59635 31.625 7.46094 32.375 7.46094C33.1719 7.46094 33.875 7.58333 34.4844 7.82812C35.099 8.06771 35.6042 8.35938 36 8.70312V10.9766H34.8047L34.5469 9.35156C34.3125 9.16406 34.0208 9.00781 33.6719 8.88281C33.3229 8.75781 32.8906 8.69531 32.375 8.69531C31.7135 8.69531 31.1771 8.86458 30.7656 9.20312C30.3594 9.54167 30.1562 9.98958 30.1562 10.5469C30.1562 11.0365 30.3516 11.4375 30.7422 11.75C31.1328 12.0573 31.8099 12.3307 32.7734 12.5703C33.9714 12.8672 34.8776 13.3073 35.4922 13.8906C36.112 14.4688 36.4219 15.1849 36.4219 16.0391C36.4219 16.6484 36.2578 17.1901 35.9297 17.6641C35.6016 18.1328 35.138 18.5 34.5391 18.7656C33.9453 19.0312 33.2448 19.1641 32.4375 19.1641ZM40.4375 19.1641C39.5573 19.1641 38.888 18.9505 38.4297 18.5234C37.9714 18.0911 37.7422 17.4844 37.7422 16.7031C37.7422 15.901 38.0703 15.2578 38.7266 14.7734C39.3828 14.2839 40.2943 14.0391 41.4609 14.0391H42.9688V13.2109C42.9688 12.7005 42.8125 12.3047 42.5 12.0234C42.1927 11.7422 41.7578 11.6016 41.1953 11.6016C40.8411 11.6016 40.5339 11.6458 40.2734 11.7344C40.013 11.8177 39.776 11.9349 39.5625 12.0859L39.3984 13.2656H38.2109V11.3281C38.9766 10.7031 39.9792 10.3906 41.2188 10.3906C42.2448 10.3906 43.0495 10.6354 43.6328 11.125C44.2161 11.6146 44.5078 12.3151 44.5078 13.2266V17.2969C44.5078 17.4062 44.5078 17.513 44.5078 17.6172C44.513 17.7214 44.5208 17.8255 44.5312 17.9297L45.3516 18.0156V19H43.1406C43.0521 18.5729 42.9974 18.1849 42.9766 17.8359C42.6797 18.2161 42.3073 18.5339 41.8594 18.7891C41.4167 19.0391 40.9427 19.1641 40.4375 19.1641ZM40.6641 17.875C41.1745 17.875 41.6406 17.7526 42.0625 17.5078C42.4844 17.263 42.7865 16.9688 42.9688 16.625V15.0938H41.4062C40.6979 15.0938 40.1667 15.263 39.8125 15.6016C39.4583 15.9401 39.2812 16.3177 39.2812 16.7344C39.2812 17.4948 39.7422 17.875 40.6641 17.875ZM46.4688 19V18.0156L47.7422 17.7969V8.02344L46.4688 7.80469V6.8125H49.2812V17.7969L50.5547 18.0156V19H46.4688ZM54.6406 19.1328C54.0156 19.1328 53.5182 18.9505 53.1484 18.5859C52.7839 18.2161 52.6016 17.6276 52.6016 16.8203V11.6875H51.2656V10.5469H52.6016V8.50781H54.1406V10.5469H55.9766V11.6875H54.1406V16.8203C54.1406 17.2266 54.2214 17.526 54.3828 17.7188C54.5443 17.9115 54.7604 18.0078 55.0312 18.0078C55.2135 18.0078 55.4167 17.9922 55.6406 17.9609C55.8646 17.9245 56.0391 17.8932 56.1641 17.8672L56.375 18.875C56.151 18.9427 55.875 19.0026 55.5469 19.0547C55.224 19.1068 54.9219 19.1328 54.6406 19.1328ZM60.0938 19.1641C59.2135 19.1641 58.5443 18.9505 58.0859 18.5234C57.6276 18.0911 57.3984 17.4844 57.3984 16.7031C57.3984 15.901 57.7266 15.2578 58.3828 14.7734C59.0391 14.2839 59.9505 14.0391 61.1172 14.0391H62.625V13.2109C62.625 12.7005 62.4688 12.3047 62.1562 12.0234C61.849 11.7422 61.4141 11.6016 60.8516 11.6016C60.4974 11.6016 60.1901 11.6458 59.9297 11.7344C59.6693 11.8177 59.4323 11.9349 59.2188 12.0859L59.0547 13.2656H57.8672V11.3281C58.6328 10.7031 59.6354 10.3906 60.875 10.3906C61.901 10.3906 62.7057 10.6354 63.2891 11.125C63.8724 11.6146 64.1641 12.3151 64.1641 13.2266V17.2969C64.1641 17.4062 64.1641 17.513 64.1641 17.6172C64.1693 17.7214 64.1771 17.8255 64.1875 17.9297L65.0078 18.0156V19H62.7969C62.7083 18.5729 62.6536 18.1849 62.6328 17.8359C62.3359 18.2161 61.9635 18.5339 61.5156 18.7891C61.0729 19.0391 60.599 19.1641 60.0938 19.1641ZM60.3203 17.875C60.8307 17.875 61.2969 17.7526 61.7188 17.5078C62.1406 17.263 62.4427 16.9688 62.625 16.625V15.0938H61.0625C60.3542 15.0938 59.8229 15.263 59.4688 15.6016C59.1146 15.9401 58.9375 16.3177 58.9375 16.7344C58.9375 17.4948 59.3984 17.875 60.3203 17.875ZM66.1875 19V18.0156L67.4609 17.7969V11.7578L66.1875 11.5391V10.5469H68.8359L68.9688 11.625L68.9844 11.7734C69.224 11.3411 69.5182 11.0026 69.8672 10.7578C70.2214 10.513 70.625 10.3906 71.0781 10.3906C71.2396 10.3906 71.4036 10.4062 71.5703 10.4375C71.7422 10.4635 71.8646 10.4896 71.9375 10.5156L71.7344 11.9453L70.6641 11.8828C70.2578 11.8568 69.9167 11.9505 69.6406 12.1641C69.3646 12.3724 69.151 12.6536 69 13.0078V17.7969L70.2734 18.0156V19H66.1875Z" fill="#F85858"/>
<path d="M79.0834 18.75L83.3334 14.5L79.0834 10.25" stroke="#F85858" stroke-linecap="round"/>
</svg>
