<svg width="82" height="78" viewBox="0 0 82 78" fill="none" xmlns="http://www.w3.org/2000/svg">
<g filter="url(#filter0_d_1803:8814)">
<path d="M64.7248 14.0907C64.1473 13.9332 63.5511 14.2725 63.393 14.8501C63.2349 15.4271 63.5742 16.0232 64.1518 16.1819C71.4659 18.1861 75.8323 21.0305 75.8323 23.7896V23.8054C75.8323 24.9103 75.0978 26.6317 71.5985 28.5557C68.8372 30.0739 64.9252 31.3747 60.2415 32.3361C59.9293 32.3999 59.6137 32.4626 59.2947 32.5236C58.7843 32.6213 58.4145 33.0684 58.4145 33.5884V43.4374C56.5966 43.1213 54.6991 42.8576 52.7467 42.6459L53.1899 36.3091C53.2317 35.7118 52.7817 35.194 52.1844 35.1523C51.5882 35.111 51.0694 35.5604 51.0276 36.1578L50.4371 44.601C50.3535 45.7849 49.3593 46.7125 48.1742 46.7125H47.5978C47.0372 46.7125 46.5691 47.1399 46.5183 47.6983L44.758 67.0447H37.2423L35.4825 47.6983C35.4317 47.1399 34.9637 46.7125 34.4031 46.7125H33.8266C32.641 46.7125 31.6474 45.7849 31.5638 44.6027L30.4149 28.1809C30.3099 26.6774 30.8186 25.2422 31.8461 24.1402C32.8736 23.0387 34.2687 22.4323 35.7744 22.4323H46.2259C47.7316 22.4323 49.1267 23.0387 50.1542 24.1402C51.1823 25.2422 51.691 26.6774 51.586 28.1803L51.3313 31.8179C51.2896 32.4152 51.7395 32.9329 52.3369 32.9747C52.9325 33.0148 53.4519 32.5665 53.4937 31.9692L53.7483 28.3316C53.8934 26.2523 53.1611 24.1859 51.7395 22.6615C50.4292 21.2574 48.6186 20.4066 46.712 20.2824C48.5214 18.6993 49.6709 16.3806 49.6862 13.7971C53.326 14.0879 56.8094 14.5587 60.005 15.2035C60.5921 15.3215 61.1635 14.9415 61.2815 14.3549C61.4 13.7683 61.0206 13.1964 60.4335 13.0784C57.0257 12.3908 53.304 11.8951 49.4174 11.6015C48.4509 7.81599 44.9787 5.05859 41.0001 5.05859C37.0216 5.05859 33.55 7.81599 32.584 11.5981C26.0913 12.087 20.1249 13.14 15.2752 14.6818C7.89897 17.0271 4 20.1763 4 23.7896V54.5432C4 57.6049 6.91322 59.8491 9.35671 61.1934C12.4991 62.921 16.974 64.3725 22.298 65.391C22.3657 65.404 22.434 65.4102 22.5018 65.4102C22.7519 65.4102 22.9963 65.3238 23.1922 65.1618C23.4412 64.9557 23.5858 64.6497 23.5858 64.3262V56.6977C23.5858 56.0992 23.1002 55.6142 22.5018 55.6142C21.9033 55.6142 21.4178 56.0992 21.4178 56.6977V63.0034C16.8848 62.0498 13.0953 60.775 10.4012 59.2936C6.90193 57.3695 6.16798 55.6481 6.16798 54.5432V28.1854C6.16854 28.1865 6.16967 28.1871 6.1708 28.1882C6.28089 28.2938 6.39437 28.3965 6.50898 28.4976C6.52423 28.5111 6.53947 28.5252 6.55528 28.5382C6.66593 28.6348 6.77829 28.7291 6.89233 28.8217C6.91322 28.8386 6.93411 28.8555 6.95556 28.8725C7.06904 28.9639 7.18422 29.0531 7.30052 29.1401C7.31859 29.1536 7.33722 29.1672 7.35585 29.1807C7.47723 29.2711 7.59975 29.3603 7.72339 29.4461C7.72452 29.4466 7.72565 29.4478 7.72678 29.4489C7.85098 29.5347 7.97575 29.6183 8.10053 29.7001C8.11746 29.712 8.13496 29.7233 8.15247 29.7351C8.27272 29.813 8.39241 29.8887 8.51267 29.9627C8.53412 29.9762 8.55614 29.9892 8.57759 30.0027C8.69728 30.0761 8.81697 30.1473 8.93554 30.2167C8.95304 30.2263 8.96997 30.2359 8.98691 30.2461C9.11112 30.3178 9.23476 30.3878 9.35671 30.455C11.0262 31.373 13.0716 32.2131 15.4203 32.9515C16.2033 33.1977 17.0197 33.432 17.8677 33.655C18.4329 33.8035 19.0115 33.9469 19.6038 34.0841C20.1955 34.2213 20.8007 34.3534 21.4178 34.4793V52.3623C21.4178 52.9613 21.9033 53.4463 22.5018 53.4463C23.1002 53.4463 23.5858 52.9613 23.5858 52.3623V45.6393C25.4466 45.3062 27.3955 45.0284 29.406 44.8088C29.5844 46.957 31.2984 48.662 33.4111 48.8608L35.1731 68.2269C35.224 68.7853 35.692 69.2126 36.2526 69.2126H45.7471C46.3077 69.2126 46.7758 68.7853 46.8266 68.2269L48.5886 48.8608C50.7013 48.6615 52.4148 46.9576 52.5937 44.8088C54.6048 45.0284 56.5531 45.3062 58.4145 45.6393V64.3268C58.4145 64.6497 58.5585 64.9557 58.8075 65.1618C59.0034 65.3238 59.2484 65.4108 59.498 65.4108C59.5657 65.4108 59.634 65.404 59.7018 65.391C65.0263 64.3725 69.5011 62.921 72.643 61.1934C75.0871 59.8497 77.9997 57.6049 77.9997 54.5432V23.7896C78.0003 19.8816 73.2855 16.4371 64.7248 14.0907ZM34.5521 12.7871C35.0179 9.61643 37.79 7.22601 41.0001 7.22601C44.2103 7.22601 46.9824 9.61643 47.4493 12.791C47.4956 13.1004 47.5193 13.4211 47.5193 13.7452C47.5193 17.3398 44.5948 20.2644 41.0001 20.2644C37.4055 20.2644 34.481 17.3398 34.481 13.7452C34.481 13.4211 34.5047 13.1004 34.5521 12.7871ZM22.7056 32.5236C17.6018 31.5474 13.3471 30.1749 10.4017 28.5552C6.90193 26.6311 6.16798 24.9103 6.16798 23.8054V23.7896C6.16798 21.3241 9.81797 18.6914 15.9318 16.7476C20.5207 15.2882 26.1597 14.281 32.3147 13.7926C32.3282 16.3778 33.4783 18.6982 35.2889 20.2819C33.3817 20.4066 31.5711 21.2569 30.2613 22.6615C28.8397 24.1853 28.1075 26.2523 28.252 28.3316L29.2535 42.6459C27.3018 42.8576 25.4037 43.1213 23.5858 43.4374V33.5884C23.5858 33.0684 23.2165 32.6213 22.7056 32.5236ZM75.8323 54.5432C75.8323 55.6481 75.0978 57.3695 71.5985 59.2936C68.9044 60.775 65.1149 62.0498 60.5825 63.0034V34.4793C65.5203 33.4721 69.6762 32.0866 72.6436 30.455C72.765 30.3884 72.8875 30.3189 73.0111 30.2472C73.0292 30.2365 73.0478 30.2263 73.0659 30.2156C73.1839 30.1473 73.3024 30.0761 73.4216 30.0039C73.4442 29.9898 73.4662 29.9762 73.4888 29.9621C73.6084 29.8887 73.7281 29.813 73.8473 29.7351C73.8653 29.7238 73.8828 29.712 73.9009 29.7001C74.0251 29.6188 74.1493 29.5353 74.2729 29.4495C74.2741 29.4483 74.2758 29.4472 74.2775 29.4461C74.4005 29.3603 74.5225 29.2716 74.6444 29.1819C74.6631 29.1677 74.6817 29.1542 74.7003 29.1401C74.8161 29.0531 74.9307 28.9639 75.0447 28.873C75.0656 28.8561 75.0871 28.8386 75.1085 28.8217C75.222 28.7291 75.3344 28.6353 75.445 28.5388C75.4608 28.5252 75.4766 28.5111 75.4924 28.497C75.6059 28.3965 75.7183 28.2949 75.8272 28.1905C75.8289 28.1888 75.8312 28.1871 75.8329 28.1859V54.5432H75.8323Z" fill="white"/>
</g>
<defs>
<filter id="filter0_d_1803:8814" x="0" y="0" width="82" height="82" filterUnits="userSpaceOnUse" color-interpolation-filters="sRGB">
<feFlood flood-opacity="0" result="BackgroundImageFix"/>
<feColorMatrix in="SourceAlpha" type="matrix" values="0 0 0 0 0 0 0 0 0 0 0 0 0 0 0 0 0 0 127 0" result="hardAlpha"/>
<feOffset dy="4"/>
<feGaussianBlur stdDeviation="2"/>
<feComposite in2="hardAlpha" operator="out"/>
<feColorMatrix type="matrix" values="0 0 0 0 0 0 0 0 0 0 0 0 0 0 0 0 0 0 0.25 0"/>
<feBlend mode="normal" in2="BackgroundImageFix" result="effect1_dropShadow_1803:8814"/>
<feBlend mode="normal" in="SourceGraphic" in2="effect1_dropShadow_1803:8814" result="shape"/>
</filter>
</defs>
</svg>
