<?xml version="1.0" encoding="utf-8"?>
<!-- Generator: Adobe Illustrator 25.3.1, SVG Export Plug-In . SVG Version: 6.00 Build 0)  -->
<svg version="1.1" id="Capa_1" xmlns="http://www.w3.org/2000/svg" xmlns:xlink="http://www.w3.org/1999/xlink" x="0px" y="0px"
	 viewBox="0 0 282 83" style="enable-background:new 0 0 282 83;" xml:space="preserve">
<style type="text/css">
	.st0{fill:#FFFFFF;fill-opacity:0.3;}
	.st1{fill:none;stroke:#FFFFFF;stroke-width:3;}
	.st2{fill:#FFFFFF;}
	.st3{fill:none;stroke:#FFFFFF;stroke-linecap:round;}
	.st4{fill:none;stroke:#FFFFFF;}
</style>
<g>
	<path class="st0" d="M35.07,12.63h205c16.02,0,29,12.98,29,29l0,0c0,16.02-12.98,29-29,29h-205c-16.02,0-29-12.98-29-29l0,0
		C6.07,25.61,19.05,12.63,35.07,12.63z"/>
	<path class="st1" d="M35.07,14.13h205c15.19,0,27.5,12.31,27.5,27.5l0,0c0,15.19-12.31,27.5-27.5,27.5h-205
		c-15.19,0-27.5-12.31-27.5-27.5l0,0C7.57,26.44,19.88,14.13,35.07,14.13z"/>
</g>
<path class="st2" d="M74.12,41.8c-1.47,0-2.8-0.32-3.99-0.97c-1.18-0.66-2.1-1.55-2.77-2.69c-0.67-1.15-1.01-2.44-1.01-3.86
	c0-1.43,0.34-2.71,1.01-3.84c0.67-1.15,1.6-2.04,2.79-2.69c1.19-0.66,2.52-0.99,3.99-0.99c1.15,0,2.2,0.2,3.15,0.59
	c0.95,0.38,1.76,0.94,2.44,1.7l-1.37,1.32c-1.11-1.16-2.49-1.74-4.14-1.74c-1.09,0-2.08,0.25-2.96,0.74
	c-0.88,0.49-1.57,1.17-2.08,2.04c-0.49,0.85-0.73,1.81-0.73,2.88c0,1.06,0.24,2.03,0.73,2.9c0.5,0.85,1.2,1.53,2.08,2.02
	c0.88,0.49,1.87,0.74,2.96,0.74c1.64,0,3.02-0.59,4.14-1.76l1.37,1.32c-0.67,0.76-1.49,1.33-2.46,1.72
	C76.32,41.6,75.27,41.8,74.12,41.8z M86.34,30.4c1.54,0,2.72,0.38,3.53,1.13c0.83,0.76,1.24,1.88,1.24,3.38v6.72H89.2v-1.47
	c-0.34,0.52-0.82,0.92-1.45,1.2c-0.62,0.27-1.35,0.4-2.21,0.4c-1.25,0-2.25-0.3-3-0.9c-0.74-0.6-1.11-1.39-1.11-2.37
	s0.36-1.76,1.07-2.35c0.71-0.6,1.85-0.9,3.4-0.9h3.19v-0.4c0-0.87-0.25-1.53-0.76-1.99c-0.5-0.46-1.25-0.69-2.23-0.69
	c-0.66,0-1.3,0.11-1.93,0.34c-0.63,0.21-1.16,0.5-1.6,0.86l-0.84-1.51c0.57-0.46,1.26-0.81,2.06-1.05
	C84.6,30.52,85.44,30.4,86.34,30.4z M85.88,40.2c0.77,0,1.43-0.17,1.99-0.5c0.56-0.35,0.97-0.84,1.22-1.47v-1.55h-3.11
	c-1.71,0-2.56,0.57-2.56,1.72c0,0.56,0.22,1,0.65,1.32C84.51,40.04,85.11,40.2,85.88,40.2z M96.77,32.37
	c0.35-0.64,0.87-1.13,1.55-1.47c0.69-0.34,1.52-0.5,2.5-0.5v1.95c-0.11-0.01-0.27-0.02-0.46-0.02c-1.09,0-1.95,0.33-2.58,0.99
	c-0.62,0.64-0.92,1.57-0.92,2.77v5.54h-2.02V30.5h1.93V32.37z M107.97,41.76c-1.11,0-2.1-0.24-2.98-0.74
	c-0.88-0.49-1.58-1.16-2.08-2.02c-0.49-0.87-0.74-1.85-0.74-2.94c0-1.09,0.25-2.06,0.74-2.92c0.5-0.87,1.2-1.54,2.08-2.02
	c0.88-0.49,1.88-0.74,2.98-0.74c1.11,0,2.09,0.25,2.96,0.74c0.88,0.48,1.57,1.15,2.06,2.02c0.5,0.85,0.76,1.83,0.76,2.92
	c0,1.09-0.25,2.07-0.76,2.94c-0.49,0.85-1.18,1.53-2.06,2.02C110.06,41.51,109.08,41.76,107.97,41.76z M107.97,39.99
	c0.71,0,1.35-0.16,1.91-0.48c0.57-0.34,1.02-0.8,1.34-1.39c0.32-0.6,0.48-1.29,0.48-2.06c0-0.77-0.16-1.45-0.48-2.04
	c-0.32-0.6-0.77-1.06-1.34-1.39c-0.56-0.32-1.2-0.48-1.91-0.48c-0.71,0-1.36,0.16-1.93,0.48c-0.56,0.32-1.01,0.78-1.34,1.39
	c-0.32,0.59-0.48,1.27-0.48,2.04c0,0.77,0.16,1.46,0.48,2.06c0.34,0.59,0.78,1.05,1.34,1.39C106.61,39.83,107.26,39.99,107.97,39.99
	z M129.04,41.8c-1.47,0-2.8-0.32-3.99-0.97c-1.18-0.66-2.1-1.55-2.77-2.69c-0.67-1.15-1.01-2.44-1.01-3.86
	c0-1.43,0.34-2.71,1.01-3.84c0.67-1.15,1.6-2.04,2.79-2.69c1.19-0.66,2.52-0.99,3.99-0.99c1.15,0,2.2,0.2,3.15,0.59
	c0.95,0.38,1.76,0.94,2.44,1.7l-1.36,1.32c-1.11-1.16-2.49-1.74-4.14-1.74c-1.09,0-2.08,0.25-2.96,0.74
	c-0.88,0.49-1.58,1.17-2.08,2.04c-0.49,0.85-0.74,1.81-0.74,2.88c0,1.06,0.25,2.03,0.74,2.9c0.5,0.85,1.2,1.53,2.08,2.02
	c0.88,0.49,1.87,0.74,2.96,0.74c1.64,0,3.02-0.59,4.14-1.76l1.36,1.32c-0.67,0.76-1.49,1.33-2.46,1.72
	C131.24,41.6,130.19,41.8,129.04,41.8z M141.26,30.4c1.54,0,2.72,0.38,3.53,1.13c0.83,0.76,1.24,1.88,1.24,3.38v6.72h-1.91v-1.47
	c-0.34,0.52-0.82,0.92-1.45,1.2c-0.62,0.27-1.35,0.4-2.21,0.4c-1.25,0-2.25-0.3-3-0.9c-0.74-0.6-1.11-1.39-1.11-2.37
	s0.36-1.76,1.07-2.35c0.71-0.6,1.85-0.9,3.4-0.9h3.19v-0.4c0-0.87-0.25-1.53-0.76-1.99c-0.5-0.46-1.25-0.69-2.23-0.69
	c-0.66,0-1.3,0.11-1.93,0.34c-0.63,0.21-1.16,0.5-1.6,0.86l-0.84-1.51c0.57-0.46,1.26-0.81,2.06-1.05
	C139.52,30.52,140.36,30.4,141.26,30.4z M140.8,40.2c0.77,0,1.44-0.17,2-0.5c0.56-0.35,0.97-0.84,1.22-1.47v-1.55h-3.11
	c-1.71,0-2.56,0.57-2.56,1.72c0,0.56,0.22,1,0.65,1.32C139.43,40.04,140.03,40.2,140.8,40.2z M151.69,32.37
	c0.35-0.64,0.87-1.13,1.55-1.47c0.69-0.34,1.52-0.5,2.5-0.5v1.95c-0.11-0.01-0.27-0.02-0.46-0.02c-1.09,0-1.95,0.33-2.58,0.99
	c-0.62,0.64-0.92,1.57-0.92,2.77v5.54h-2.02V30.5h1.93V32.37z M160.16,32.37c0.35-0.64,0.87-1.13,1.55-1.47
	c0.69-0.34,1.52-0.5,2.5-0.5v1.95c-0.11-0.01-0.27-0.02-0.46-0.02c-1.09,0-1.95,0.33-2.58,0.99c-0.62,0.64-0.92,1.57-0.92,2.77v5.54
	h-2.02V30.5h1.93V32.37z M176.65,36.13c0,0.15-0.01,0.36-0.04,0.61h-9.03c0.13,0.98,0.55,1.77,1.28,2.37
	c0.74,0.59,1.66,0.88,2.75,0.88c1.33,0,2.4-0.45,3.21-1.34l1.11,1.3c-0.5,0.59-1.13,1.04-1.89,1.34c-0.74,0.31-1.57,0.46-2.5,0.46
	c-1.18,0-2.22-0.24-3.13-0.71c-0.91-0.49-1.62-1.17-2.12-2.04c-0.49-0.87-0.74-1.85-0.74-2.94c0-1.08,0.24-2.05,0.71-2.92
	c0.49-0.87,1.15-1.54,1.99-2.02c0.85-0.49,1.81-0.74,2.88-0.74s2.01,0.25,2.84,0.74c0.84,0.48,1.49,1.15,1.95,2.02
	C176.42,34.01,176.65,35.01,176.65,36.13z M171.15,32.1c-0.97,0-1.78,0.29-2.44,0.88c-0.64,0.59-1.02,1.36-1.13,2.31h7.14
	c-0.11-0.94-0.5-1.7-1.15-2.29C172.92,32.4,172.12,32.1,171.15,32.1z M185.71,40.98c-0.29,0.25-0.66,0.45-1.09,0.59
	c-0.43,0.13-0.88,0.19-1.34,0.19c-1.12,0-1.99-0.3-2.6-0.9s-0.92-1.46-0.92-2.58v-6.11h-1.89V30.5h1.89v-2.44h2.02v2.44h3.19v1.66
	h-3.19v6.03c0,0.6,0.15,1.06,0.44,1.39c0.31,0.32,0.74,0.48,1.3,0.48c0.62,0,1.14-0.17,1.57-0.53L185.71,40.98z M192.2,30.4
	c1.54,0,2.72,0.38,3.53,1.13c0.83,0.76,1.24,1.88,1.24,3.38v6.72h-1.91v-1.47c-0.34,0.52-0.82,0.92-1.45,1.2
	c-0.62,0.27-1.35,0.4-2.21,0.4c-1.25,0-2.25-0.3-3-0.9c-0.74-0.6-1.11-1.39-1.11-2.37s0.36-1.76,1.07-2.35
	c0.71-0.6,1.85-0.9,3.4-0.9h3.19v-0.4c0-0.87-0.25-1.53-0.76-1.99c-0.5-0.46-1.25-0.69-2.23-0.69c-0.66,0-1.3,0.11-1.93,0.34
	c-0.63,0.21-1.16,0.5-1.6,0.86l-0.84-1.51c0.57-0.46,1.26-0.81,2.06-1.05C190.46,30.52,191.3,30.4,192.2,30.4z M191.74,40.2
	c0.77,0,1.43-0.17,1.99-0.5c0.56-0.35,0.97-0.84,1.22-1.47v-1.55h-3.11c-1.71,0-2.56,0.57-2.56,1.72c0,0.56,0.22,1,0.65,1.32
	C190.37,40.04,190.97,40.2,191.74,40.2z"/>
<path class="st2" d="M72.68,58.73c-0.91,0-1.73-0.2-2.47-0.6c-0.73-0.41-1.3-0.96-1.72-1.66c-0.42-0.71-0.62-1.51-0.62-2.39
	s0.21-1.68,0.62-2.38c0.42-0.71,0.99-1.27,1.73-1.66c0.74-0.41,1.56-0.61,2.47-0.61c0.71,0,1.36,0.12,1.95,0.36
	c0.59,0.23,1.09,0.58,1.51,1.05l-0.85,0.82c-0.68-0.72-1.54-1.08-2.56-1.08c-0.68,0-1.29,0.15-1.83,0.46
	c-0.55,0.3-0.98,0.72-1.29,1.26c-0.3,0.53-0.46,1.12-0.46,1.78s0.15,1.26,0.46,1.79c0.31,0.53,0.74,0.94,1.29,1.25
	c0.55,0.3,1.16,0.45,1.83,0.45c1.01,0,1.87-0.36,2.56-1.09l0.85,0.82c-0.42,0.47-0.92,0.82-1.52,1.07
	C74.04,58.61,73.39,58.73,72.68,58.73z M81.5,51.68c0.88,0,1.57,0.26,2.08,0.77c0.52,0.5,0.78,1.24,0.78,2.22v3.97h-1.25v-3.82
	c0-0.67-0.16-1.17-0.48-1.51c-0.32-0.34-0.78-0.51-1.38-0.51c-0.68,0-1.21,0.2-1.6,0.6c-0.39,0.39-0.58,0.95-0.58,1.69v3.55h-1.25
	v-9.65h1.25v3.73c0.26-0.33,0.6-0.58,1.01-0.77C80.51,51.77,80.98,51.68,81.5,51.68z M92.94,55.22c0,0.1-0.01,0.22-0.03,0.38h-5.59
	c0.08,0.61,0.34,1.1,0.79,1.47c0.46,0.36,1.03,0.55,1.7,0.55c0.82,0,1.49-0.28,1.99-0.83l0.69,0.81c-0.31,0.36-0.7,0.64-1.17,0.83
	c-0.46,0.19-0.98,0.29-1.55,0.29c-0.73,0-1.37-0.15-1.94-0.44c-0.56-0.3-1-0.72-1.31-1.26c-0.3-0.54-0.46-1.14-0.46-1.82
	c0-0.67,0.15-1.27,0.44-1.81c0.3-0.54,0.72-0.95,1.24-1.25c0.53-0.3,1.12-0.46,1.78-0.46c0.66,0,1.24,0.15,1.76,0.46
	c0.52,0.29,0.92,0.71,1.21,1.25C92.79,53.92,92.94,54.53,92.94,55.22z M89.53,52.73c-0.6,0-1.1,0.18-1.51,0.55
	c-0.4,0.36-0.63,0.84-0.7,1.43h4.42c-0.07-0.58-0.31-1.05-0.72-1.42C90.63,52.91,90.13,52.73,89.53,52.73z M100.9,55.22
	c0,0.1-0.01,0.22-0.03,0.38h-5.59c0.08,0.61,0.34,1.1,0.79,1.47c0.46,0.36,1.03,0.55,1.7,0.55c0.82,0,1.49-0.28,1.99-0.83l0.69,0.81
	c-0.31,0.36-0.7,0.64-1.17,0.83c-0.46,0.19-0.98,0.29-1.55,0.29c-0.73,0-1.37-0.15-1.94-0.44c-0.56-0.3-1-0.72-1.31-1.26
	c-0.3-0.54-0.46-1.14-0.46-1.82c0-0.67,0.15-1.27,0.44-1.81c0.3-0.54,0.72-0.95,1.24-1.25c0.53-0.3,1.12-0.46,1.78-0.46
	c0.66,0,1.24,0.15,1.76,0.46c0.52,0.29,0.92,0.71,1.21,1.25C100.75,53.92,100.9,54.53,100.9,55.22z M97.49,52.73
	c-0.6,0-1.1,0.18-1.51,0.55c-0.4,0.36-0.63,0.84-0.7,1.43h4.42c-0.07-0.58-0.31-1.05-0.72-1.42C98.59,52.91,98.09,52.73,97.49,52.73
	z M103.82,52.9c0.22-0.4,0.54-0.7,0.96-0.91s0.94-0.31,1.55-0.31v1.21c-0.07-0.01-0.17-0.01-0.29-0.01c-0.68,0-1.21,0.2-1.6,0.61
	c-0.38,0.4-0.57,0.97-0.57,1.72v3.43h-1.25v-6.89h1.2V52.9z M107.87,48.98h1.25v9.65h-1.25V48.98z M117.73,55.22
	c0,0.1-0.01,0.22-0.03,0.38h-5.59c0.08,0.61,0.34,1.1,0.79,1.47c0.46,0.36,1.03,0.55,1.7,0.55c0.82,0,1.49-0.28,1.99-0.83l0.69,0.81
	c-0.31,0.36-0.7,0.64-1.17,0.83c-0.46,0.19-0.97,0.29-1.55,0.29c-0.73,0-1.37-0.15-1.94-0.44c-0.56-0.3-1-0.72-1.31-1.26
	c-0.3-0.54-0.45-1.14-0.45-1.82c0-0.67,0.15-1.27,0.44-1.81c0.3-0.54,0.72-0.95,1.24-1.25c0.53-0.3,1.12-0.46,1.78-0.46
	c0.66,0,1.24,0.15,1.75,0.46c0.52,0.29,0.92,0.71,1.21,1.25C117.58,53.92,117.73,54.53,117.73,55.22z M114.32,52.73
	c-0.6,0-1.1,0.18-1.51,0.55c-0.4,0.36-0.63,0.84-0.7,1.43h4.42c-0.07-0.58-0.31-1.05-0.72-1.42
	C115.42,52.91,114.92,52.73,114.32,52.73z M121.78,51.68c0.95,0,1.68,0.23,2.18,0.7c0.51,0.47,0.77,1.17,0.77,2.09v4.16h-1.18v-0.91
	c-0.21,0.32-0.51,0.57-0.9,0.74c-0.38,0.16-0.84,0.25-1.36,0.25c-0.77,0-1.39-0.19-1.86-0.56c-0.46-0.37-0.69-0.86-0.69-1.47
	s0.22-1.09,0.66-1.46c0.44-0.37,1.14-0.56,2.11-0.56h1.98v-0.25c0-0.54-0.16-0.95-0.47-1.23c-0.31-0.29-0.77-0.43-1.38-0.43
	c-0.41,0-0.81,0.07-1.2,0.21c-0.39,0.13-0.72,0.31-0.99,0.53l-0.52-0.94c0.36-0.29,0.78-0.5,1.27-0.65
	C120.7,51.75,121.23,51.68,121.78,51.68z M121.49,57.75c0.48,0,0.89-0.1,1.24-0.31c0.35-0.22,0.6-0.52,0.75-0.91v-0.96h-1.92
	c-1.06,0-1.59,0.36-1.59,1.07c0,0.35,0.14,0.62,0.4,0.82C120.65,57.65,121.02,57.75,121.49,57.75z M133.58,48.98v9.65h-1.2v-1.09
	c-0.28,0.38-0.63,0.67-1.05,0.87s-0.89,0.3-1.4,0.3c-0.67,0-1.26-0.15-1.79-0.44c-0.53-0.29-0.94-0.71-1.25-1.24
	c-0.29-0.54-0.44-1.15-0.44-1.85c0-0.69,0.15-1.3,0.44-1.83c0.3-0.53,0.72-0.94,1.25-1.24c0.53-0.29,1.13-0.44,1.79-0.44
	c0.49,0,0.95,0.1,1.36,0.29c0.42,0.18,0.76,0.45,1.04,0.82v-3.8H133.58z M130.03,57.62c0.43,0,0.83-0.1,1.18-0.3
	c0.36-0.21,0.63-0.49,0.83-0.86c0.2-0.37,0.3-0.8,0.3-1.27s-0.1-0.9-0.3-1.26c-0.2-0.37-0.48-0.66-0.83-0.86
	c-0.35-0.2-0.75-0.3-1.18-0.3c-0.44,0-0.84,0.1-1.2,0.3c-0.35,0.2-0.62,0.49-0.83,0.86c-0.2,0.36-0.3,0.78-0.3,1.26
	s0.1,0.9,0.3,1.27c0.21,0.36,0.49,0.65,0.83,0.86C129.19,57.52,129.59,57.62,130.03,57.62z M142.17,55.22c0,0.1-0.01,0.22-0.03,0.38
	h-5.59c0.08,0.61,0.34,1.1,0.79,1.47c0.46,0.36,1.03,0.55,1.7,0.55c0.82,0,1.49-0.28,1.99-0.83l0.69,0.81
	c-0.31,0.36-0.7,0.64-1.17,0.83c-0.46,0.19-0.98,0.29-1.55,0.29c-0.73,0-1.37-0.15-1.94-0.44c-0.56-0.3-1-0.72-1.31-1.26
	c-0.3-0.54-0.45-1.14-0.45-1.82c0-0.67,0.15-1.27,0.44-1.81c0.3-0.54,0.72-0.95,1.24-1.25c0.53-0.3,1.12-0.46,1.78-0.46
	c0.66,0,1.24,0.15,1.76,0.46c0.52,0.29,0.92,0.71,1.21,1.25C142.02,53.92,142.17,54.53,142.17,55.22z M138.76,52.73
	c-0.6,0-1.1,0.18-1.51,0.55c-0.4,0.36-0.63,0.84-0.7,1.43h4.42c-0.07-0.58-0.31-1.05-0.72-1.42
	C139.86,52.91,139.36,52.73,138.76,52.73z M145.1,52.9c0.22-0.4,0.54-0.7,0.96-0.91c0.43-0.21,0.94-0.31,1.55-0.31v1.21
	c-0.07-0.01-0.16-0.01-0.29-0.01c-0.68,0-1.21,0.2-1.6,0.61c-0.38,0.4-0.57,0.97-0.57,1.72v3.43h-1.25v-6.89h1.2V52.9z
	 M159.22,48.98v9.65h-1.2v-1.09c-0.28,0.38-0.63,0.67-1.05,0.87c-0.43,0.2-0.89,0.3-1.4,0.3c-0.67,0-1.27-0.15-1.79-0.44
	c-0.53-0.29-0.95-0.71-1.25-1.24c-0.29-0.54-0.44-1.15-0.44-1.85c0-0.69,0.15-1.3,0.44-1.83c0.3-0.53,0.72-0.94,1.25-1.24
	c0.53-0.29,1.13-0.44,1.79-0.44c0.49,0,0.95,0.1,1.37,0.29c0.42,0.18,0.76,0.45,1.04,0.82v-3.8H159.22z M155.68,57.62
	c0.43,0,0.83-0.1,1.18-0.3c0.35-0.21,0.63-0.49,0.83-0.86c0.2-0.37,0.3-0.8,0.3-1.27s-0.1-0.9-0.3-1.26
	c-0.2-0.37-0.48-0.66-0.83-0.86c-0.36-0.2-0.75-0.3-1.18-0.3c-0.44,0-0.84,0.1-1.2,0.3c-0.35,0.2-0.62,0.49-0.83,0.86
	c-0.2,0.36-0.3,0.78-0.3,1.26s0.1,0.9,0.3,1.27c0.21,0.36,0.49,0.65,0.83,0.86C154.83,57.52,155.23,57.62,155.68,57.62z
	 M167.81,55.22c0,0.1-0.01,0.22-0.03,0.38h-5.59c0.08,0.61,0.34,1.1,0.79,1.47c0.46,0.36,1.03,0.55,1.7,0.55
	c0.82,0,1.49-0.28,1.99-0.83l0.69,0.81c-0.31,0.36-0.7,0.64-1.17,0.83c-0.46,0.19-0.97,0.29-1.55,0.29c-0.73,0-1.37-0.15-1.94-0.44
	c-0.56-0.3-1-0.72-1.31-1.26c-0.3-0.54-0.46-1.14-0.46-1.82c0-0.67,0.15-1.27,0.44-1.81c0.3-0.54,0.71-0.95,1.24-1.25
	c0.53-0.3,1.12-0.46,1.78-0.46s1.24,0.15,1.75,0.46c0.52,0.29,0.92,0.71,1.21,1.25C167.67,53.92,167.81,54.53,167.81,55.22z
	 M164.41,52.73c-0.6,0-1.1,0.18-1.51,0.55c-0.4,0.36-0.63,0.84-0.7,1.43h4.42c-0.07-0.58-0.31-1.05-0.71-1.42
	C165.5,52.91,165,52.73,164.41,52.73z M169.55,48.98h1.25v9.65h-1.25V48.98z M185.29,51.68c0.87,0,1.55,0.25,2.05,0.75
	c0.51,0.5,0.77,1.25,0.77,2.24v3.97h-1.25v-3.82c0-0.67-0.16-1.17-0.47-1.51c-0.3-0.34-0.74-0.51-1.31-0.51
	c-0.63,0-1.13,0.2-1.51,0.6c-0.37,0.39-0.56,0.95-0.56,1.69v3.55h-1.25v-3.82c0-0.67-0.16-1.17-0.47-1.51
	c-0.3-0.34-0.74-0.51-1.31-0.51c-0.63,0-1.14,0.2-1.51,0.6c-0.37,0.39-0.56,0.95-0.56,1.69v3.55h-1.25v-6.89h1.2v1.03
	c0.25-0.36,0.58-0.62,0.99-0.81c0.41-0.19,0.87-0.29,1.39-0.29c0.54,0,1.01,0.11,1.43,0.33c0.42,0.22,0.74,0.53,0.96,0.95
	c0.26-0.4,0.62-0.71,1.08-0.94C184.18,51.79,184.71,51.68,185.29,51.68z M192.91,51.68c0.95,0,1.68,0.23,2.18,0.7
	c0.51,0.47,0.77,1.17,0.77,2.09v4.16h-1.18v-0.91c-0.21,0.32-0.51,0.57-0.9,0.74c-0.38,0.16-0.84,0.25-1.37,0.25
	c-0.77,0-1.39-0.19-1.86-0.56c-0.46-0.37-0.69-0.86-0.69-1.47s0.22-1.09,0.66-1.46c0.44-0.37,1.14-0.56,2.11-0.56h1.98v-0.25
	c0-0.54-0.16-0.95-0.47-1.23c-0.31-0.29-0.77-0.43-1.38-0.43c-0.41,0-0.81,0.07-1.2,0.21c-0.39,0.13-0.72,0.31-0.99,0.53l-0.52-0.94
	c0.36-0.29,0.78-0.5,1.27-0.65C191.83,51.75,192.36,51.68,192.91,51.68z M192.63,57.75c0.48,0,0.89-0.1,1.24-0.31
	c0.35-0.22,0.6-0.52,0.75-0.91v-0.96h-1.92c-1.06,0-1.59,0.36-1.59,1.07c0,0.35,0.14,0.62,0.4,0.82
	C191.78,57.65,192.15,57.75,192.63,57.75z M201.85,51.68c0.88,0,1.57,0.26,2.08,0.77c0.52,0.5,0.78,1.24,0.78,2.22v3.97h-1.25v-3.82
	c0-0.67-0.16-1.17-0.48-1.51c-0.32-0.34-0.78-0.51-1.38-0.51c-0.68,0-1.21,0.2-1.6,0.6c-0.39,0.39-0.58,0.95-0.58,1.69v3.55h-1.25
	v-6.89h1.2v1.04c0.25-0.36,0.59-0.63,1.01-0.82C200.82,51.77,201.31,51.68,201.85,51.68z M202.36,50.7c-0.21,0-0.39-0.04-0.55-0.13
	c-0.15-0.09-0.33-0.22-0.56-0.39c-0.13-0.12-0.24-0.21-0.34-0.26c-0.1-0.06-0.19-0.09-0.29-0.09c-0.19,0-0.35,0.07-0.47,0.22
	c-0.12,0.14-0.19,0.33-0.2,0.59h-0.7c0.02-0.49,0.14-0.87,0.36-1.16c0.23-0.29,0.54-0.43,0.91-0.43c0.21,0,0.39,0.05,0.55,0.14
	c0.16,0.09,0.35,0.22,0.56,0.39c0.15,0.12,0.26,0.21,0.35,0.27c0.09,0.05,0.18,0.08,0.27,0.08c0.19,0,0.35-0.07,0.47-0.21
	c0.12-0.14,0.19-0.33,0.19-0.57h0.7c-0.02,0.47-0.14,0.85-0.38,1.13C203.03,50.56,202.73,50.7,202.36,50.7z M209.53,51.68
	c0.95,0,1.68,0.23,2.18,0.7c0.51,0.47,0.77,1.17,0.77,2.09v4.16h-1.18v-0.91c-0.21,0.32-0.51,0.57-0.9,0.74
	c-0.38,0.16-0.84,0.25-1.37,0.25c-0.77,0-1.39-0.19-1.86-0.56c-0.46-0.37-0.69-0.86-0.69-1.47s0.22-1.09,0.66-1.46
	c0.44-0.37,1.14-0.56,2.11-0.56h1.98v-0.25c0-0.54-0.16-0.95-0.47-1.23c-0.31-0.29-0.77-0.43-1.38-0.43c-0.41,0-0.81,0.07-1.2,0.21
	c-0.39,0.13-0.72,0.31-0.99,0.53l-0.52-0.94c0.36-0.29,0.78-0.5,1.27-0.65C208.45,51.75,208.98,51.68,209.53,51.68z M209.24,57.75
	c0.48,0,0.89-0.1,1.24-0.31c0.35-0.22,0.6-0.52,0.75-0.91v-0.96h-1.92c-1.06,0-1.59,0.36-1.59,1.07c0,0.35,0.13,0.62,0.4,0.82
	C208.4,57.65,208.77,57.75,209.24,57.75z M218.47,51.68c0.88,0,1.57,0.26,2.08,0.77c0.52,0.5,0.78,1.24,0.78,2.22v3.97h-1.25v-3.82
	c0-0.67-0.16-1.17-0.48-1.51c-0.32-0.34-0.78-0.51-1.38-0.51c-0.68,0-1.21,0.2-1.6,0.6c-0.39,0.39-0.59,0.95-0.59,1.69v3.55h-1.25
	v-6.89h1.2v1.04c0.25-0.36,0.59-0.63,1.01-0.82C217.43,51.77,217.92,51.68,218.47,51.68z M229.91,55.22c0,0.1-0.01,0.22-0.03,0.38
	h-5.59c0.08,0.61,0.34,1.1,0.79,1.47c0.46,0.36,1.03,0.55,1.7,0.55c0.82,0,1.49-0.28,1.99-0.83l0.69,0.81
	c-0.31,0.36-0.7,0.64-1.17,0.83c-0.46,0.19-0.97,0.29-1.55,0.29c-0.73,0-1.37-0.15-1.94-0.44c-0.56-0.3-1-0.72-1.31-1.26
	c-0.3-0.54-0.46-1.14-0.46-1.82c0-0.67,0.15-1.27,0.44-1.81c0.3-0.54,0.71-0.95,1.24-1.25c0.53-0.3,1.12-0.46,1.78-0.46
	c0.66,0,1.24,0.15,1.75,0.46c0.52,0.29,0.92,0.71,1.21,1.25C229.76,53.92,229.91,54.53,229.91,55.22z M226.5,52.73
	c-0.6,0-1.1,0.18-1.51,0.55c-0.4,0.36-0.63,0.84-0.7,1.43h4.42c-0.07-0.58-0.31-1.05-0.71-1.42C227.6,52.91,227.1,52.73,226.5,52.73
	z M232.83,52.9c0.22-0.4,0.54-0.7,0.96-0.91c0.42-0.21,0.94-0.31,1.55-0.31v1.21c-0.07-0.01-0.16-0.01-0.29-0.01
	c-0.68,0-1.21,0.2-1.6,0.61c-0.38,0.4-0.57,0.97-0.57,1.72v3.43h-1.25v-6.89h1.2V52.9z M239.77,58.71c-0.68,0-1.3-0.15-1.85-0.45
	c-0.55-0.3-0.97-0.72-1.29-1.25c-0.3-0.54-0.46-1.14-0.46-1.82s0.15-1.28,0.46-1.81c0.31-0.54,0.74-0.95,1.29-1.25
	c0.55-0.3,1.16-0.46,1.85-0.46c0.68,0,1.3,0.15,1.83,0.46c0.55,0.29,0.97,0.71,1.27,1.25c0.31,0.53,0.47,1.13,0.47,1.81
	s-0.16,1.28-0.47,1.82c-0.3,0.53-0.73,0.94-1.27,1.25C241.06,58.56,240.45,58.71,239.77,58.71z M239.77,57.62
	c0.44,0,0.84-0.1,1.18-0.3c0.36-0.21,0.63-0.49,0.83-0.86c0.2-0.37,0.3-0.8,0.3-1.27s-0.1-0.9-0.3-1.26
	c-0.2-0.37-0.48-0.66-0.83-0.86c-0.35-0.2-0.74-0.3-1.18-0.3s-0.84,0.1-1.2,0.3c-0.35,0.2-0.62,0.49-0.83,0.86
	c-0.2,0.36-0.3,0.78-0.3,1.26s0.1,0.9,0.3,1.27c0.21,0.36,0.49,0.65,0.83,0.86C238.93,57.52,239.33,57.62,239.77,57.62z"/>
<path class="st3" d="M27.77,52.51c0,0,5.54-2.38,7.13-3.96c1.58-1.58-3.17-1.58-3.17-9.5c0-7.92,6.33-7.92,6.33-7.92
	s6.33,0,6.33,7.92c0,7.92-4.75,7.92-3.17,9.5c1.58,1.58,7.13,3.96,7.13,3.96"/>
<path class="st4" d="M38.07,56.46c8.74,0,15.83-7.09,15.83-15.83S46.81,24.8,38.07,24.8s-15.83,7.09-15.83,15.83
	S29.32,56.46,38.07,56.46z"/>
</svg>
