<svg width="240" height="155" viewBox="0 0 240 155" fill="none" xmlns="http://www.w3.org/2000/svg">
<g filter="url(#filter0_d)">
<rect width="240" height="50.5702" rx="25.2851" fill="white" fill-opacity="0.3"/>
<rect x="1.5" y="1.5" width="237" height="47.5702" rx="23.7851" stroke="white" stroke-width="3"/>
</g>
<text fill="white" xml:space="preserve" style="white-space: pre" font-family="Montserrat" font-size="21" font-weight="500" letter-spacing="0px"><tspan x="71" y="25.8879">Dani Murcia</tspan></text>
<text fill="white" xml:space="preserve" style="white-space: pre" font-family="Montserrat" font-size="13" font-weight="500" letter-spacing="0px"><tspan x="87.645" y="41.5614">social media</tspan></text>
<path d="M21.7083 34.7673C21.7083 34.7673 27.2499 32.6965 28.8333 31.316C30.4166 29.9355 25.6666 29.9355 25.6666 23.0329C25.6666 16.1304 31.9999 16.1304 31.9999 16.1304C31.9999 16.1304 38.3333 16.1304 38.3333 23.0329C38.3333 29.9355 33.5833 29.9355 35.1666 31.316C36.7499 32.6965 42.2916 34.7673 42.2916 34.7673" stroke="white" stroke-linecap="round"/>
<path fill-rule="evenodd" clip-rule="evenodd" d="M32.0001 38.2186C40.7446 38.2186 47.8334 32.0378 47.8334 24.4135C47.8334 16.7892 40.7446 10.6084 32.0001 10.6084C23.2556 10.6084 16.1667 16.7892 16.1667 24.4135C16.1667 32.0378 23.2556 38.2186 32.0001 38.2186Z" stroke="white"/>
<path d="M29 51L29 148" stroke="white"/>
<circle cx="28.5" cy="147.5" r="7.5" fill="white"/>
<defs>
<filter id="filter0_d" x="-4" y="0" width="248" height="58.5702" filterUnits="userSpaceOnUse" color-interpolation-filters="sRGB">
<feFlood flood-opacity="0" result="BackgroundImageFix"/>
<feColorMatrix in="SourceAlpha" type="matrix" values="0 0 0 0 0 0 0 0 0 0 0 0 0 0 0 0 0 0 127 0" result="hardAlpha"/>
<feOffset dy="4"/>
<feGaussianBlur stdDeviation="2"/>
<feColorMatrix type="matrix" values="0 0 0 0 0 0 0 0 0 0 0 0 0 0 0 0 0 0 0.25 0"/>
<feBlend mode="normal" in2="BackgroundImageFix" result="effect1_dropShadow"/>
<feBlend mode="normal" in="SourceGraphic" in2="effect1_dropShadow" result="shape"/>
</filter>
</defs>
</svg>
