<?xml version="1.0" encoding="utf-8"?>
<!-- Generator: Adobe Illustrator 25.3.1, SVG Export Plug-In . SVG Version: 6.00 Build 0)  -->
<svg version="1.1" id="Capa_1" xmlns="http://www.w3.org/2000/svg" xmlns:xlink="http://www.w3.org/1999/xlink" x="0px" y="0px"
	 viewBox="0 0 282 195" style="enable-background:new 0 0 282 195;" xml:space="preserve">
<style type="text/css">
	.st0{fill:#FFFFFF;fill-opacity:0.3;}
	.st1{fill:none;stroke:#FFFFFF;stroke-width:3;}
	.st2{fill:#FFFFFF;}
	.st3{fill:none;stroke:#FFFFFF;}
	.st4{fill:none;}
</style>
<g>
	<path class="st0" d="M38.07,10.37h205c16.02,0,29,12.98,29,29l0,0c0,16.02-12.98,29-29,29h-205c-16.02,0-29-12.98-29-29l0,0
		C9.07,23.35,22.05,10.37,38.07,10.37z"/>
	<path class="st1" d="M38.07,11.87h205c15.19,0,27.5,12.31,27.5,27.5l0,0c0,15.19-12.31,27.5-27.5,27.5h-205
		c-15.19,0-27.5-12.31-27.5-27.5l0,0C10.57,24.18,22.88,11.87,38.07,11.87z"/>
</g>
<path class="st2" d="M66.44,24.67h2.1v14.7h-2.1V24.67z M75.84,39.5c-0.91,0-1.79-0.12-2.63-0.36c-0.84-0.25-1.5-0.57-1.97-0.94
	l0.84-1.6c0.49,0.35,1.08,0.63,1.78,0.84c0.7,0.21,1.41,0.31,2.12,0.31c1.76,0,2.65-0.5,2.65-1.51c0-0.34-0.12-0.6-0.36-0.8
	s-0.54-0.34-0.9-0.42c-0.35-0.1-0.85-0.2-1.51-0.31c-0.9-0.14-1.63-0.3-2.21-0.48c-0.56-0.18-1.04-0.49-1.45-0.92
	c-0.41-0.43-0.61-1.04-0.61-1.83c0-1.01,0.42-1.81,1.26-2.42c0.84-0.62,1.97-0.92,3.38-0.92c0.74,0,1.48,0.09,2.23,0.27
	c0.74,0.18,1.35,0.43,1.83,0.74l-0.86,1.6c-0.91-0.59-1.98-0.88-3.21-0.88c-0.85,0-1.51,0.14-1.95,0.42
	c-0.45,0.28-0.67,0.65-0.67,1.11c0,0.36,0.13,0.65,0.38,0.86s0.56,0.36,0.92,0.46c0.38,0.1,0.9,0.21,1.57,0.34
	c0.9,0.15,1.62,0.32,2.16,0.5c0.56,0.17,1.04,0.46,1.43,0.88c0.39,0.42,0.59,1.01,0.59,1.76c0,1.01-0.43,1.81-1.3,2.41
	C78.49,39.2,77.32,39.5,75.84,39.5z M89.11,28.13c1.41,0,2.53,0.41,3.36,1.24c0.84,0.81,1.26,2.01,1.26,3.59v6.4h-2.02V33.2
	c0-1.08-0.26-1.89-0.78-2.44c-0.52-0.55-1.26-0.82-2.23-0.82c-1.09,0-1.95,0.32-2.58,0.97c-0.63,0.63-0.94,1.54-0.94,2.73v5.73
	h-2.02V23.79h2.02v6.03c0.42-0.53,0.97-0.94,1.64-1.24C87.5,28.28,88.27,28.13,89.11,28.13z M102.29,39.5
	c-1.11,0-2.1-0.24-2.98-0.73c-0.88-0.49-1.57-1.16-2.08-2.02c-0.49-0.87-0.74-1.85-0.74-2.94s0.24-2.06,0.74-2.92
	c0.5-0.87,1.2-1.54,2.08-2.02c0.88-0.49,1.88-0.74,2.98-0.74c1.11,0,2.09,0.25,2.96,0.74c0.88,0.48,1.57,1.15,2.06,2.02
	c0.5,0.85,0.76,1.83,0.76,2.92s-0.25,2.07-0.76,2.94c-0.49,0.85-1.18,1.53-2.06,2.02C104.38,39.25,103.39,39.5,102.29,39.5z
	 M102.29,37.73c0.71,0,1.35-0.16,1.91-0.48c0.57-0.34,1.02-0.8,1.34-1.39c0.32-0.6,0.48-1.29,0.48-2.06s-0.16-1.45-0.48-2.04
	c-0.32-0.6-0.77-1.06-1.34-1.39c-0.56-0.32-1.2-0.48-1.91-0.48c-0.71,0-1.36,0.16-1.93,0.48c-0.56,0.32-1.01,0.78-1.34,1.39
	c-0.32,0.59-0.48,1.27-0.48,2.04s0.16,1.46,0.48,2.06c0.34,0.59,0.78,1.05,1.34,1.39C100.93,37.57,101.57,37.73,102.29,37.73z
	 M116.75,28.13c1.08,0,2.04,0.24,2.9,0.71c0.85,0.48,1.52,1.14,2,2c0.49,0.85,0.74,1.84,0.74,2.96s-0.25,2.11-0.74,2.98
	c-0.48,0.85-1.14,1.52-2,2c-0.85,0.48-1.82,0.71-2.9,0.71c-0.8,0-1.53-0.15-2.21-0.46c-0.66-0.31-1.22-0.76-1.68-1.34v5.75h-2.02
	v-15.2h1.93V30c0.45-0.62,1.01-1.08,1.7-1.39C115.17,28.3,115.92,28.13,116.75,28.13z M116.58,37.73c0.71,0,1.35-0.16,1.91-0.48
	c0.57-0.34,1.02-0.8,1.34-1.39c0.34-0.6,0.5-1.29,0.5-2.06s-0.17-1.45-0.5-2.04c-0.32-0.6-0.77-1.06-1.34-1.39
	c-0.56-0.32-1.2-0.48-1.91-0.48c-0.7,0-1.34,0.17-1.91,0.5c-0.56,0.32-1.01,0.78-1.34,1.36c-0.32,0.59-0.48,1.27-0.48,2.04
	s0.16,1.46,0.48,2.06c0.32,0.59,0.77,1.05,1.34,1.39C115.25,37.57,115.88,37.73,116.58,37.73z M140.86,33.87
	c0,0.15-0.01,0.36-0.04,0.61h-9.03c0.13,0.98,0.55,1.77,1.28,2.37c0.74,0.59,1.66,0.88,2.75,0.88c1.33,0,2.4-0.45,3.21-1.34
	l1.11,1.3c-0.5,0.59-1.13,1.04-1.89,1.34c-0.74,0.31-1.57,0.46-2.5,0.46c-1.18,0-2.22-0.24-3.13-0.71
	c-0.91-0.49-1.62-1.17-2.12-2.04c-0.49-0.87-0.74-1.85-0.74-2.94c0-1.08,0.24-2.05,0.71-2.92c0.49-0.87,1.15-1.54,1.99-2.02
	c0.85-0.49,1.81-0.74,2.88-0.74s2.01,0.25,2.83,0.74c0.84,0.48,1.49,1.15,1.95,2.02C140.62,31.75,140.86,32.75,140.86,33.87z
	 M135.36,29.84c-0.97,0-1.78,0.29-2.44,0.88c-0.64,0.59-1.02,1.36-1.13,2.31h7.14c-0.11-0.94-0.5-1.7-1.15-2.29
	C137.13,30.14,136.33,29.84,135.36,29.84z M149.6,28.13c1.41,0,2.53,0.41,3.36,1.24c0.84,0.81,1.26,2.01,1.26,3.59v6.4h-2.02V33.2
	c0-1.08-0.26-1.89-0.78-2.44c-0.52-0.55-1.26-0.82-2.23-0.82c-1.09,0-1.95,0.32-2.58,0.97c-0.63,0.63-0.95,1.54-0.95,2.73v5.73
	h-2.02V28.24h1.93v1.68c0.41-0.57,0.95-1.01,1.64-1.32C147.93,28.29,148.72,28.13,149.6,28.13z M163.6,23.79h2.02v15.58h-2.02V23.79
	z M173.51,28.13c1.54,0,2.72,0.38,3.53,1.13c0.83,0.76,1.24,1.88,1.24,3.38v6.72h-1.91V37.9c-0.34,0.52-0.82,0.92-1.45,1.2
	c-0.62,0.27-1.35,0.4-2.21,0.4c-1.25,0-2.25-0.3-3-0.9c-0.74-0.6-1.11-1.39-1.11-2.37s0.36-1.76,1.07-2.35
	c0.71-0.6,1.85-0.9,3.4-0.9h3.19v-0.4c0-0.87-0.25-1.53-0.76-1.99s-1.25-0.69-2.23-0.69c-0.66,0-1.3,0.11-1.93,0.34
	c-0.63,0.21-1.16,0.5-1.6,0.86l-0.84-1.51c0.57-0.46,1.26-0.81,2.06-1.05C171.77,28.26,172.62,28.13,173.51,28.13z M173.05,37.94
	c0.77,0,1.43-0.17,1.99-0.5c0.56-0.35,0.97-0.84,1.22-1.47v-1.55h-3.11c-1.71,0-2.56,0.57-2.56,1.72c0,0.56,0.22,1,0.65,1.32
	C171.68,37.78,172.28,37.94,173.05,37.94z M201.57,28.13c1.4,0,2.51,0.41,3.32,1.22c0.83,0.81,1.24,2.02,1.24,3.61v6.4h-2.02V33.2
	c0-1.08-0.25-1.89-0.76-2.44c-0.49-0.55-1.2-0.82-2.12-0.82c-1.02,0-1.83,0.32-2.44,0.97c-0.6,0.63-0.9,1.54-0.9,2.73v5.73h-2.02
	V33.2c0-1.08-0.25-1.89-0.76-2.44c-0.49-0.55-1.2-0.82-2.12-0.82c-1.02,0-1.83,0.32-2.44,0.97c-0.6,0.63-0.9,1.54-0.9,2.73v5.73
	h-2.02V28.24h1.93v1.66c0.41-0.57,0.94-1.01,1.6-1.3c0.66-0.31,1.41-0.46,2.25-0.46c0.87,0,1.64,0.18,2.31,0.53
	c0.67,0.35,1.19,0.86,1.55,1.53c0.42-0.64,1-1.15,1.74-1.51C199.79,28.32,200.64,28.13,201.57,28.13z M219.96,33.87
	c0,0.15-0.01,0.36-0.04,0.61h-9.03c0.13,0.98,0.55,1.77,1.28,2.37c0.74,0.59,1.66,0.88,2.75,0.88c1.33,0,2.4-0.45,3.21-1.34
	l1.11,1.3c-0.5,0.59-1.13,1.04-1.89,1.34c-0.74,0.31-1.58,0.46-2.5,0.46c-1.18,0-2.22-0.24-3.13-0.71
	c-0.91-0.49-1.62-1.17-2.12-2.04c-0.49-0.87-0.74-1.85-0.74-2.94c0-1.08,0.24-2.05,0.71-2.92c0.49-0.87,1.15-1.54,1.99-2.02
	c0.85-0.49,1.81-0.74,2.88-0.74s2.01,0.25,2.84,0.74c0.84,0.48,1.49,1.15,1.95,2.02C219.72,31.75,219.96,32.75,219.96,33.87z
	 M214.46,29.84c-0.97,0-1.78,0.29-2.44,0.88c-0.64,0.59-1.02,1.36-1.13,2.31h7.14c-0.11-0.94-0.5-1.7-1.15-2.29
	C216.23,30.14,215.43,29.84,214.46,29.84z M233.41,28.24v9.62c0,1.95-0.48,3.38-1.45,4.3c-0.97,0.94-2.41,1.41-4.33,1.41
	c-1.05,0-2.05-0.15-3-0.44c-0.95-0.28-1.72-0.69-2.31-1.22l0.97-1.55c0.52,0.45,1.15,0.8,1.91,1.05c0.77,0.27,1.56,0.4,2.37,0.4
	c1.3,0,2.26-0.31,2.88-0.92c0.63-0.62,0.95-1.55,0.95-2.81v-0.88c-0.48,0.57-1.06,1.01-1.76,1.3c-0.69,0.28-1.43,0.42-2.25,0.42
	c-1.06,0-2.03-0.22-2.9-0.67c-0.85-0.46-1.53-1.1-2.02-1.91c-0.49-0.83-0.74-1.76-0.74-2.81c0-1.05,0.24-1.98,0.74-2.79
	c0.49-0.83,1.16-1.46,2.02-1.91c0.87-0.45,1.83-0.67,2.9-0.67c0.84,0,1.62,0.15,2.33,0.46c0.73,0.31,1.32,0.76,1.79,1.36v-1.72
	H233.41z M227.61,37.14c0.73,0,1.38-0.15,1.95-0.46c0.59-0.31,1.04-0.74,1.37-1.28c0.34-0.56,0.5-1.19,0.5-1.89
	c0-1.08-0.36-1.95-1.07-2.6c-0.71-0.67-1.63-1.01-2.75-1.01c-1.13,0-2.06,0.34-2.77,1.01c-0.71,0.66-1.07,1.53-1.07,2.6
	c0,0.7,0.16,1.33,0.48,1.89c0.34,0.55,0.79,0.97,1.36,1.28C226.2,36.99,226.87,37.14,227.61,37.14z M241.31,28.13
	c1.54,0,2.72,0.38,3.53,1.13c0.83,0.76,1.24,1.88,1.24,3.38v6.72h-1.91V37.9c-0.34,0.52-0.82,0.92-1.45,1.2
	c-0.62,0.27-1.35,0.4-2.21,0.4c-1.25,0-2.25-0.3-3-0.9c-0.74-0.6-1.11-1.39-1.11-2.37s0.36-1.76,1.07-2.35
	c0.71-0.6,1.85-0.9,3.4-0.9h3.19v-0.4c0-0.87-0.25-1.53-0.76-1.99s-1.25-0.69-2.23-0.69c-0.66,0-1.3,0.11-1.93,0.34
	c-0.63,0.21-1.16,0.5-1.6,0.86l-0.84-1.51c0.57-0.46,1.26-0.81,2.06-1.05C239.57,28.26,240.42,28.13,241.31,28.13z M240.85,37.94
	c0.77,0,1.43-0.17,1.99-0.5c0.56-0.35,0.97-0.84,1.22-1.47v-1.55h-3.11c-1.71,0-2.56,0.57-2.56,1.72c0,0.56,0.22,1,0.65,1.32
	C239.48,37.78,240.08,37.94,240.85,37.94z"/>
<path class="st2" d="M72.62,49.41c0.88,0,1.57,0.26,2.08,0.77c0.52,0.5,0.78,1.24,0.78,2.22v3.97h-1.25v-3.82
	c0-0.67-0.16-1.17-0.48-1.51c-0.32-0.34-0.78-0.51-1.38-0.51c-0.68,0-1.21,0.2-1.6,0.6c-0.39,0.39-0.59,0.95-0.59,1.69v3.55h-1.25
	v-6.89h1.2v1.04c0.25-0.36,0.59-0.63,1.01-0.82C71.58,49.51,72.07,49.41,72.62,49.41z M84.21,49.48v6.89h-1.18v-1.04
	c-0.25,0.36-0.58,0.63-1,0.83c-0.41,0.19-0.85,0.29-1.34,0.29c-0.92,0-1.64-0.25-2.17-0.75c-0.53-0.51-0.79-1.26-0.79-2.25v-3.97
	h1.25v3.82c0,0.67,0.16,1.17,0.48,1.52c0.32,0.34,0.78,0.51,1.38,0.51c0.66,0,1.18-0.2,1.56-0.6c0.38-0.4,0.57-0.96,0.57-1.69v-3.56
	H84.21z M92.81,52.96c0,0.1-0.01,0.22-0.03,0.38H87.2c0.08,0.61,0.34,1.1,0.79,1.47c0.46,0.36,1.03,0.55,1.7,0.55
	c0.82,0,1.49-0.28,1.99-0.83l0.69,0.81c-0.31,0.36-0.7,0.64-1.17,0.83c-0.46,0.19-0.97,0.29-1.55,0.29c-0.73,0-1.37-0.15-1.94-0.44
	c-0.56-0.3-1-0.72-1.31-1.26c-0.3-0.54-0.46-1.14-0.46-1.82c0-0.67,0.15-1.27,0.44-1.81c0.3-0.54,0.71-0.95,1.24-1.25
	c0.53-0.3,1.12-0.46,1.78-0.46s1.24,0.15,1.75,0.46c0.52,0.29,0.92,0.71,1.21,1.25C92.67,51.65,92.81,52.27,92.81,52.96z
	 M89.41,50.47c-0.6,0-1.1,0.18-1.51,0.55c-0.4,0.36-0.63,0.84-0.7,1.43h4.42c-0.07-0.58-0.31-1.05-0.71-1.42
	C90.5,50.65,90,50.47,89.41,50.47z M100.52,49.48l-3.02,6.89h-1.27l-3.02-6.89h1.3L96.88,55l2.42-5.52H100.52z M104.44,56.45
	c-0.68,0-1.3-0.15-1.85-0.45c-0.55-0.3-0.97-0.72-1.29-1.25c-0.3-0.54-0.45-1.14-0.45-1.82s0.15-1.28,0.45-1.81
	c0.31-0.54,0.74-0.95,1.29-1.25c0.55-0.3,1.16-0.46,1.85-0.46s1.3,0.15,1.83,0.46c0.55,0.29,0.97,0.71,1.27,1.25
	c0.31,0.53,0.47,1.13,0.47,1.81s-0.16,1.28-0.47,1.82c-0.3,0.53-0.73,0.94-1.27,1.25C105.74,56.3,105.13,56.45,104.44,56.45z
	 M104.44,55.36c0.44,0,0.84-0.1,1.18-0.3c0.36-0.21,0.63-0.49,0.83-0.86c0.2-0.37,0.3-0.8,0.3-1.27s-0.1-0.9-0.3-1.26
	c-0.2-0.37-0.48-0.66-0.83-0.86c-0.35-0.2-0.74-0.3-1.18-0.3s-0.84,0.1-1.2,0.3c-0.35,0.2-0.62,0.49-0.83,0.86
	c-0.2,0.36-0.3,0.78-0.3,1.26s0.1,0.9,0.3,1.27c0.21,0.36,0.49,0.65,0.83,0.86C103.6,55.26,104,55.36,104.44,55.36z M121.85,49.41
	c0.87,0,1.55,0.25,2.05,0.75c0.51,0.5,0.77,1.25,0.77,2.24v3.97h-1.25v-3.82c0-0.67-0.16-1.17-0.47-1.51
	c-0.3-0.34-0.74-0.51-1.31-0.51c-0.63,0-1.14,0.2-1.51,0.6c-0.37,0.39-0.56,0.95-0.56,1.69v3.55h-1.25v-3.82
	c0-0.67-0.16-1.17-0.47-1.51c-0.3-0.34-0.74-0.51-1.31-0.51c-0.63,0-1.14,0.2-1.51,0.6c-0.37,0.39-0.56,0.95-0.56,1.69v3.55h-1.25
	v-6.89h1.2v1.03c0.25-0.36,0.58-0.62,0.99-0.81c0.41-0.19,0.87-0.29,1.39-0.29c0.54,0,1.01,0.11,1.43,0.33
	c0.42,0.22,0.74,0.53,0.96,0.95c0.26-0.4,0.62-0.71,1.08-0.94C120.75,49.53,121.27,49.41,121.85,49.41z M129.48,49.41
	c0.95,0,1.68,0.23,2.18,0.7c0.51,0.47,0.77,1.17,0.77,2.09v4.16h-1.18v-0.91c-0.21,0.32-0.51,0.57-0.9,0.74
	c-0.38,0.16-0.84,0.25-1.37,0.25c-0.77,0-1.39-0.19-1.86-0.56c-0.46-0.37-0.69-0.86-0.69-1.47s0.22-1.09,0.66-1.46
	c0.44-0.37,1.14-0.56,2.11-0.56h1.98v-0.25c0-0.54-0.16-0.95-0.47-1.23c-0.31-0.29-0.77-0.43-1.38-0.43c-0.41,0-0.81,0.07-1.2,0.21
	c-0.39,0.13-0.72,0.31-0.99,0.53l-0.52-0.94c0.36-0.29,0.78-0.5,1.27-0.65C128.4,49.49,128.92,49.41,129.48,49.41z M129.19,55.49
	c0.48,0,0.89-0.1,1.24-0.31c0.35-0.22,0.6-0.52,0.75-0.91V53.3h-1.92c-1.06,0-1.59,0.36-1.59,1.07c0,0.35,0.13,0.62,0.4,0.82
	C128.34,55.39,128.72,55.49,129.19,55.49z M137.78,56.45c-0.7,0-1.33-0.15-1.88-0.45c-0.55-0.3-0.98-0.72-1.29-1.25
	c-0.31-0.54-0.47-1.14-0.47-1.82s0.16-1.28,0.47-1.81c0.31-0.54,0.74-0.95,1.29-1.25c0.55-0.3,1.18-0.46,1.88-0.46
	c0.62,0,1.18,0.13,1.66,0.38c0.49,0.25,0.88,0.62,1.14,1.09l-0.95,0.61c-0.22-0.33-0.49-0.58-0.81-0.74
	c-0.32-0.16-0.68-0.25-1.07-0.25c-0.45,0-0.86,0.1-1.22,0.3c-0.36,0.2-0.64,0.49-0.84,0.86c-0.2,0.36-0.3,0.78-0.3,1.26
	c0,0.49,0.1,0.91,0.3,1.29c0.21,0.36,0.49,0.65,0.84,0.85c0.36,0.2,0.77,0.3,1.22,0.3c0.39,0,0.75-0.08,1.07-0.25
	c0.32-0.16,0.59-0.41,0.81-0.74l0.95,0.6c-0.27,0.48-0.65,0.85-1.14,1.1C138.96,56.32,138.4,56.45,137.78,56.45z M148.51,51.65
	c0.53,0.15,0.94,0.42,1.25,0.81c0.3,0.38,0.46,0.87,0.46,1.46c0,0.79-0.3,1.4-0.9,1.82c-0.59,0.42-1.45,0.64-2.59,0.64h-4.34v-9.1
	h4.08c1.04,0,1.84,0.21,2.4,0.62c0.57,0.42,0.86,0.99,0.86,1.73c0,0.48-0.11,0.89-0.34,1.24C149.18,51.2,148.88,51.47,148.51,51.65z
	 M143.69,48.32v2.91h2.66c0.67,0,1.18-0.12,1.53-0.36c0.36-0.25,0.55-0.62,0.55-1.09s-0.18-0.84-0.55-1.08
	c-0.36-0.25-0.87-0.38-1.53-0.38H143.69z M146.68,55.32c0.74,0,1.29-0.12,1.66-0.36c0.37-0.24,0.56-0.62,0.56-1.14
	c0-1.01-0.74-1.52-2.22-1.52h-2.99v3.03H146.68z M154.99,56.45c-0.68,0-1.3-0.15-1.85-0.45c-0.55-0.3-0.97-0.72-1.29-1.25
	c-0.3-0.54-0.46-1.14-0.46-1.82s0.15-1.28,0.46-1.81c0.31-0.54,0.74-0.95,1.29-1.25c0.55-0.3,1.16-0.46,1.85-0.46
	c0.68,0,1.3,0.15,1.83,0.46c0.55,0.29,0.97,0.71,1.27,1.25c0.31,0.53,0.47,1.13,0.47,1.81s-0.16,1.28-0.47,1.82
	c-0.3,0.53-0.73,0.94-1.27,1.25C156.29,56.3,155.68,56.45,154.99,56.45z M154.99,55.36c0.44,0,0.84-0.1,1.18-0.3
	c0.36-0.21,0.63-0.49,0.83-0.86c0.2-0.37,0.3-0.8,0.3-1.27s-0.1-0.9-0.3-1.26c-0.2-0.37-0.48-0.66-0.83-0.86
	c-0.35-0.2-0.74-0.3-1.18-0.3s-0.84,0.1-1.2,0.3c-0.35,0.2-0.62,0.49-0.83,0.86c-0.2,0.36-0.3,0.78-0.3,1.26s0.1,0.9,0.3,1.27
	c0.21,0.36,0.49,0.65,0.83,0.86C154.15,55.26,154.55,55.36,154.99,55.36z M163.25,56.45c-0.68,0-1.3-0.15-1.85-0.45
	c-0.55-0.3-0.97-0.72-1.29-1.25c-0.3-0.54-0.46-1.14-0.46-1.82s0.15-1.28,0.46-1.81c0.31-0.54,0.74-0.95,1.29-1.25
	c0.55-0.3,1.16-0.46,1.85-0.46c0.68,0,1.3,0.15,1.83,0.46c0.55,0.29,0.97,0.71,1.27,1.25c0.31,0.53,0.47,1.13,0.47,1.81
	s-0.16,1.28-0.47,1.82c-0.3,0.53-0.73,0.94-1.27,1.25C164.54,56.3,163.93,56.45,163.25,56.45z M163.25,55.36
	c0.44,0,0.84-0.1,1.18-0.3c0.36-0.21,0.63-0.49,0.83-0.86c0.2-0.37,0.3-0.8,0.3-1.27s-0.1-0.9-0.3-1.26
	c-0.2-0.37-0.48-0.66-0.83-0.86c-0.35-0.2-0.74-0.3-1.18-0.3s-0.84,0.1-1.2,0.3c-0.35,0.2-0.62,0.49-0.83,0.86
	c-0.2,0.36-0.3,0.78-0.3,1.26s0.1,0.9,0.3,1.27c0.21,0.36,0.49,0.65,0.83,0.86C162.41,55.26,162.8,55.36,163.25,55.36z
	 M171.22,53.16l-1.43,1.33v1.88h-1.25v-9.65h1.25v6.19l3.76-3.43h1.51l-2.9,2.85l3.18,4.04h-1.53L171.22,53.16z"/>
<path class="st3" d="M76.07,66.37v105"/>
<rect x="66.07" y="162.37" class="st4" width="20" height="20"/>
</svg>
