<svg xmlns="http://www.w3.org/2000/svg" width="182.38" height="38.157" viewBox="0 0 182.38 38.157">
  <g id="Grupo_6" data-name="Grupo 6" transform="translate(4042.313 -3417.84)">
    <path id="Trazado_1" data-name="Trazado 1" d="M-3364.562,3426.563l1.581-8.491,13.195.016.944,1.768,1.371-.063,3.685,6.884,7.963-8.576,13.423-.068-.3,1.6,2.518.044-.917,4.922a14.717,14.717,0,0,1,3.918-.308l10.972,0c2.1.01,4.36.281,5.816,2.38a7.263,7.263,0,0,1,5.322-2.257l6.334-.052,1.12.825.247-.995,15.007.1-.187,1.006a7.946,7.946,0,0,1,4.309-1.046l10.691-.087c2.34-.033,5.953.619,6.612,2.333,2.105.881,3.184,2.037,2.968,5.478l-1.483,7.616,2.376.124-1.577,8.471-14.841-.07.031-.737a2.132,2.132,0,0,1-2.016.918l-5.334-.079a6.414,6.414,0,0,1-5.371-2.719l-.851,4.572c-.913,4.9-3.551,5.855-7.167,5.9l-11.062.148c-2.748.275-4.911-.3-6.232-2.094-2.818-.82-2.9-3.447-2.426-6.456a14.234,14.234,0,0,1-4.05.667l-10.236.048c-2.812.175-5.249-.193-6.806-1.756l-.264,1.416-14.136.021.309-1.661-2.791-.16.76-4.082-3.97,4.227-1.5-2.549-.984.727-2.544-4.461-1.549,7.988-14.2.115.1-1.808-2.31-.132,1.466-8.554,2.247.121,1.979-10.964Z" transform="translate(-612.858 -0.192)" fill="#00baff" fill-rule="evenodd"/>
    <path id="Trazado_2" data-name="Trazado 2" d="M-4036.958,3420.334l17.09-.042-.309,1.661,2.645.153-1.562,8.386-2.195.166-.985,5.057,8.078-.3c1.1-8.39,3.782-9.375,8.9-9.4l9.959-.035c2.276-.021,5.912.509,6.436,2.366,2.665.284,3.185,3.629,2.8,5.719l-1.308,7.375,2.352.014-1.584,8.511-14.979.1.181-.75a3.955,3.955,0,0,1-1.58.746l-5.854-.008a8.483,8.483,0,0,1-3.465-1.114l-.233,1.253-27.188.137.183-1.77-2.506-.107,1.585-8.511,2.32-.034,2.035-10.933-2.3-.068Z" transform="translate(-0.226 -2.246)" fill="#00baff" fill-rule="evenodd"/>
    <g id="Grupo_5" data-name="Grupo 5" transform="translate(-4040.708 3419.204)">
      <path id="Trazado_3" data-name="Trazado 3" d="M-3719.246,3501.662c.685-4.01-1.543-4.805-5.309-4.763l-5.61.037-4.7.039c-2.912.03-6.116,1.045-6.7,4.058l-.632,3.171,8.66-.023.373-2.114,2.034.016,1.973.008-.476,2.9-2.04,0h-5.007c-4.439.022-6.561,1.157-7.045,3.76l-.676,3.632c-.29,1.558-.159,3.832,2.627,4.011l4.746.268a7.241,7.241,0,0,0,3.271-.473,7.647,7.647,0,0,0,2.245-1.45l-.328,1.763,12.276.058,1.061-5.933-2.273.022Zm-11.6,9.682-2,.011c-1.017,0-2.037,0-2.017,0l.483-2.138,1.934-.02,1.978-.015Z" transform="translate(3769.991 -3491.08)" fill="#fff"/>
      <path id="Trazado_4" data-name="Trazado 4" d="M-2623.246,3506.026l1.111-5.968-.04-.007-12.224.123-.351,1.886a16.7,16.7,0,0,0-1.46-1.056l-1.2-.839-4.621.094c-3.278.047-5.682,1.105-6.32,4.659l-2.029,11.122c-.538,3,1.594,3.863,3.95,3.856l5.586-.021,1.28-.843,1.876-1.18-.921,4.942-1.643-.07-1.514-.07.363-1.948-8.958.006-.52,2.791c-.775,4.162,2.265,4.136,5.8,4.158l3.9,0,5.811.021c3.8.005,5.771-1.366,6.547-5.53l3-16.1,2.529-.015Zm-13.806,7.933-1.572,0-1.555.029,1.477-7.936,1.548.011,1.568.018Z" transform="translate(2776.06 -3493.947)" fill="#fff"/>
      <path id="Trazado_5" data-name="Trazado 5" d="M-4007.053,3450.159l-.991,4.292-3.218.079,2.566-13.781,2.239.164,1.123-6.03-14.4-.009-1.1,5.928,2.333.116-2.546,13.679-2.293-.109-1.119,6.011,24.485-.216,1.879-10.092Z" transform="translate(4024.469 -3434.703)" fill="#fff"/>
      <path id="Trazado_6" data-name="Trazado 6" d="M-2343.841,3513.967l1.527-8.991c.682-4.011-1.546-4.806-5.307-4.784l-5.61.058-4.7.039c-2.908.01-6.109,1.026-6.693,4.036l-.636,3.194,8.663-.023.37-2.115,2.04,0,1.967.027-.476,2.9-2.037,0h-5.01c-4.118.02-6.251.982-6.92,3.212a4.6,4.6,0,0,0-.126.548l-.676,3.632a5.44,5.44,0,0,0-.088.6c-.133,1.5.288,3.236,2.724,3.372l4.737.31a7.334,7.334,0,0,0,3.278-.492,7.555,7.555,0,0,0,2.238-1.431l-.325,1.743,12.277.058,1.064-5.935Zm-10.081.69-1.995.011c-1.019,0-2.039,0-2.017,0l.484-2.159h1.934l1.975-.016Z" transform="translate(2518.437 -3494.074)" fill="#fff"/>
      <path id="Trazado_7" data-name="Trazado 7" d="M-3310.754,3438.819l1.081-5.805-11.2,0-9.833,10.625-5.753-10.576-11.09-.049-1.115,5.988,2.31.132-2.513,13.5-2.384-.084-1.15,6.176,11.72-.025,2.318-12.451,5.365,9.7,9.342-9.7-2.28,12.243,11.368.142,1.146-6.153-2.367.175,2.57-13.8Z" transform="translate(3413.594 -3433.008)" fill="#fff"/>
      <path id="Trazado_8" data-name="Trazado 8" d="M-2904.953,3511.865l11.769.049,1.295-7.4c.538-3.124-2.107-4.191-4.8-4.183l-6.118.028-5.67.026c-3.1-.341-6.236,1.471-6.809,4.42l-2,10.28c-.806,4.094,1.692,4.922,5.789,4.921l5.031-.018,5.733-.017c3.057,0,6.185-.735,6.875-4.662l.448-2.631-9.675-.019-.422,2.043-1.977.012-1.955.019.535-2.872Zm-.8-6.173,1.958-.039,1.981-.035-.366,1.968-1.981.035-2,.032Z" transform="translate(3018.233 -3494.201)" fill="#fff"/>
    </g>
  </g>
</svg>
