<svg width="21" height="21" viewBox="0 0 21 21" fill="none" xmlns="http://www.w3.org/2000/svg">
<g id="chip 1">
<path id="Vector" d="M15.4629 4.92188H5.53711C5.19729 4.92188 4.92188 5.19729 4.92188 5.53711V15.4629C4.92188 15.8027 5.19729 16.0781 5.53711 16.0781H15.4629C15.8027 16.0781 16.0781 15.8027 16.0781 15.4629V5.53711C16.0781 5.19729 15.8027 4.92188 15.4629 4.92188ZM14.8477 14.8477H6.15234V6.15234H14.8477V14.8477Z" fill="white"/>
<path id="Vector_2" d="M20.3848 8.6543C20.7246 8.6543 21 8.37888 21 8.03906C21 7.69924 20.7246 7.42383 20.3848 7.42383H18.5391V6.19336H20.3848C20.7246 6.19336 21 5.91795 21 5.57812C21 5.2383 20.7246 4.96289 20.3848 4.96289H18.5391V3.89648C18.5391 3.10485 17.8951 2.46094 17.1035 2.46094H16.0371V0.615234C16.0371 0.275414 15.7617 0 15.4219 0C15.0821 0 14.8066 0.275414 14.8066 0.615234V2.46094H13.5762V0.615234C13.5762 0.275414 13.3008 0 12.9609 0C12.6211 0 12.3457 0.275414 12.3457 0.615234V2.46094H11.1152V0.615234C11.1152 0.275414 10.8398 0 10.5 0C10.1602 0 9.88477 0.275414 9.88477 0.615234V2.46094H8.6543V0.615234C8.6543 0.275414 8.37888 0 8.03906 0C7.69924 0 7.42383 0.275414 7.42383 0.615234V2.46094H6.19336V0.615234C6.19336 0.275414 5.91795 0 5.57812 0C5.2383 0 4.96289 0.275414 4.96289 0.615234V2.46094H3.89648C3.10485 2.46094 2.46094 3.10485 2.46094 3.89648V4.96289H0.615234C0.275414 4.96289 0 5.2383 0 5.57812C0 5.91795 0.275414 6.19336 0.615234 6.19336H2.46094V7.42383H0.615234C0.275414 7.42383 0 7.69924 0 8.03906C0 8.37888 0.275414 8.6543 0.615234 8.6543H2.46094V9.88477H0.615234C0.275414 9.88477 0 10.1602 0 10.5C0 10.8398 0.275414 11.1152 0.615234 11.1152H2.46094V12.3457H0.615234C0.275414 12.3457 0 12.6211 0 12.9609C0 13.3008 0.275414 13.5762 0.615234 13.5762H2.46094V14.8066H0.615234C0.275414 14.8066 0 15.0821 0 15.4219C0 15.7617 0.275414 16.0371 0.615234 16.0371H2.46094V17.1035C2.46094 17.8951 3.10485 18.5391 3.89648 18.5391H4.96289V20.3848C4.96289 20.7246 5.2383 21 5.57812 21C5.91795 21 6.19336 20.7246 6.19336 20.3848V18.5391H7.42383V20.3848C7.42383 20.7246 7.69924 21 8.03906 21C8.37888 21 8.6543 20.7246 8.6543 20.3848V18.5391H9.88477V20.3848C9.88477 20.7246 10.1602 21 10.5 21C10.8398 21 11.1152 20.7246 11.1152 20.3848V18.5391H12.3457V20.3848C12.3457 20.7246 12.6211 21 12.9609 21C13.3008 21 13.5762 20.7246 13.5762 20.3848V18.5391H14.8066V20.3848C14.8066 20.7246 15.0821 21 15.4219 21C15.7617 21 16.0371 20.7246 16.0371 20.3848V18.5391H17.1035C17.8951 18.5391 18.5391 17.8951 18.5391 17.1035V16.0371H20.3848C20.7246 16.0371 21 15.7617 21 15.4219C21 15.0821 20.7246 14.8066 20.3848 14.8066H18.5391V13.5762H20.3848C20.7246 13.5762 21 13.3008 21 12.9609C21 12.6211 20.7246 12.3457 20.3848 12.3457H18.5391V11.1152H20.3848C20.7246 11.1152 21 10.8398 21 10.5C21 10.1602 20.7246 9.88477 20.3848 9.88477H18.5391V8.6543H20.3848ZM17.3086 17.1035C17.3086 17.2166 17.2166 17.3086 17.1035 17.3086H3.89648C3.78337 17.3086 3.69141 17.2166 3.69141 17.1035V3.89648C3.69141 3.78337 3.78337 3.69141 3.89648 3.69141H17.1035C17.2166 3.69141 17.3086 3.78337 17.3086 3.89648V17.1035Z" fill="white"/>
</g>
</svg>
