<svg width="34" height="34" viewBox="0 0 34 34" fill="none" xmlns="http://www.w3.org/2000/svg">
<path d="M7.96875 23.9062H9.03125V24.9688H7.96875V23.9062Z" fill="white"/>
<path d="M3.71875 23.9062H4.78125V24.9688H3.71875V23.9062Z" fill="white"/>
<path d="M5.84375 23.9062H6.90625V24.9688H5.84375V23.9062Z" fill="white"/>
<path d="M30.8125 3.71875H29.2188V2.125C29.2188 1.24631 28.5037 0.53125 27.625 0.53125H6.375C5.49631 0.53125 4.78125 1.24631 4.78125 2.125V3.71875H3.1875C1.72284 3.71875 0.53125 4.91034 0.53125 6.375V24.4375C0.53125 25.9022 1.72284 27.0938 3.1875 27.0938H12.7298C12.6406 27.9411 12.2002 28.7093 11.5101 29.2188H10.0938C8.62909 29.2188 7.4375 30.4103 7.4375 31.875C7.4375 32.7537 8.15256 33.4688 9.03125 33.4688H24.9688C25.8474 33.4688 26.5625 32.7537 26.5625 31.875C26.5625 30.4103 25.3709 29.2188 23.9062 29.2188H22.4899C21.7998 28.7093 21.3594 27.9411 21.2702 27.0938H30.8125C32.2772 27.0938 33.4688 25.9022 33.4688 24.4375V6.375C33.4688 4.91034 32.2772 3.71875 30.8125 3.71875ZM20.7188 14.3438H26.0312V21.7812H20.7188V14.3438ZM21.1459 13.2812L23.0122 10.2946C23.1699 10.0428 23.5795 10.0433 23.7373 10.2946L25.6041 13.2812H21.1459ZM24.6383 9.73144C24.3642 9.29316 23.8919 9.03125 23.375 9.03125C22.8581 9.03125 22.3858 9.29316 22.1117 9.73144L19.6562 13.66V21.7812H14.1536L13.7004 20.9653C13.7806 20.7937 13.8534 20.621 13.9177 20.4478L15.4062 20.069V16.0554L13.9177 15.6767C13.8545 15.5072 13.7833 15.3372 13.7052 15.1688L14.4909 13.8465L11.653 11.0086L10.3307 11.7948C10.1623 11.7167 9.99175 11.6455 9.82281 11.5823L9.44403 10.0938H5.84375V7.96875H28.1562V21.7812H27.0938V13.66L24.6383 9.73144ZM4.78125 21.7812H3.71875V6.90625H4.78125V21.7812ZM5.84375 20.1737C6.28894 20.511 6.83719 20.7188 7.4375 20.7188C8.90216 20.7188 10.0938 19.5272 10.0938 18.0625C10.0938 16.5978 8.90216 15.4062 7.4375 15.4062C6.83719 15.4062 6.28894 15.614 5.84375 15.9513V14.7103C6.33994 14.4744 6.88287 14.3438 7.4375 14.3438C9.48759 14.3438 11.1562 16.0119 11.1562 18.0625C11.1562 20.1131 9.48759 21.7812 7.4375 21.7812H5.84375V20.1737ZM5.84375 18.0625C5.84375 17.1838 6.55881 16.4688 7.4375 16.4688C8.31619 16.4688 9.03125 17.1838 9.03125 18.0625C9.03125 18.9412 8.31619 19.6562 7.4375 19.6562C6.55881 19.6562 5.84375 18.9412 5.84375 18.0625ZM12.2188 18.0625C12.2188 15.4264 10.0741 13.2812 7.4375 13.2812C6.89084 13.2812 6.35375 13.3843 5.84375 13.5644V11.1562H8.61847L8.93616 12.4068L9.21666 12.4966C9.51416 12.5917 9.81484 12.7171 10.1123 12.8706L10.3737 13.0055L11.4867 12.3436L13.1564 14.0133L12.4945 15.1268L12.6305 15.3887C12.7835 15.6852 12.9094 15.9858 13.0045 16.2828L13.0937 16.5633L14.3438 16.8815V19.2429L13.0932 19.5612L13.0039 19.8417C12.9088 20.1386 12.7829 20.4393 12.6299 20.7358L12.4987 20.9886L12.9386 21.7812H10.4364C11.5218 20.9042 12.2188 19.5638 12.2188 18.0625ZM29.2188 6.90625H30.2812V21.7812H29.2188V6.90625ZM6.375 1.59375H27.625C27.9182 1.59375 28.1562 1.83228 28.1562 2.125V6.90625H5.84375V2.125C5.84375 1.83228 6.08175 1.59375 6.375 1.59375ZM25.5 31.875C25.5 32.1677 25.262 32.4062 24.9688 32.4062H9.03125C8.738 32.4062 8.5 32.1677 8.5 31.875C8.5 30.9963 9.21506 30.2812 10.0938 30.2812H23.9062C24.7849 30.2812 25.5 30.9963 25.5 31.875ZM21.0003 29.2188H12.9997C13.4555 28.6052 13.7317 27.8715 13.7923 27.0938H20.2072C20.2682 27.8715 20.5445 28.6052 21.0003 29.2188ZM32.4062 24.4375C32.4062 25.3162 31.6912 26.0312 30.8125 26.0312H3.1875C2.30881 26.0312 1.59375 25.3162 1.59375 24.4375V6.375C1.59375 5.49631 2.30881 4.78125 3.1875 4.78125H4.78125V5.84375H3.71875C3.13278 5.84375 2.65625 6.32028 2.65625 6.90625V21.7812C2.65625 22.3672 3.13278 22.8438 3.71875 22.8438H30.2812C30.8672 22.8438 31.3438 22.3672 31.3438 21.7812V6.90625C31.3438 6.32028 30.8672 5.84375 30.2812 5.84375H29.2188V4.78125H30.8125C31.6912 4.78125 32.4062 5.49631 32.4062 6.375V24.4375Z" fill="white"/>
<path d="M10.0938 2.65625H6.90625V5.84375H10.0938V2.65625ZM9.03125 4.78125H7.96875V3.71875H9.03125V4.78125Z" fill="white"/>
<path d="M14.3438 2.65625H11.1562V5.84375H14.3438V2.65625ZM13.2812 4.78125H12.2188V3.71875H13.2812V4.78125Z" fill="white"/>
<path d="M18.5938 2.65625H15.4062V5.84375H18.5938V2.65625ZM17.5312 4.78125H16.4688V3.71875H17.5312V4.78125Z" fill="white"/>
<path d="M22.8438 19.6562H23.9062V20.7188H22.8438V19.6562Z" fill="white"/>
<path d="M22.8438 15.4062H23.9062V16.4688H22.8438V15.4062Z" fill="white"/>
<path d="M22.8438 17.5312H23.9062V18.5938H22.8438V17.5312Z" fill="white"/>
</svg>
