<svg width="183" height="58" viewBox="0 0 183 58" fill="none" xmlns="http://www.w3.org/2000/svg">
<path fill-rule="evenodd" clip-rule="evenodd" d="M21.1316 11.2192C20.2864 10.1608 19.1241 9.84329 18.3845 10.3725C17.6449 10.9017 17.7506 12.1718 18.5958 13.2301C19.4411 14.2885 20.6033 14.6061 21.343 14.0769C22.0826 13.5477 21.9769 12.2776 21.1316 11.2192Z" fill="#323232"/>
<path d="M21.5543 30.7995C21.5543 30.7995 17.3279 29.2119 17.2223 24.3433C17.2223 20.2156 20.6033 18.3105 20.709 18.2046L20.8147 18.0988V17.9929C18.9128 15.2411 16.06 14.7119 14.7921 14.7119H14.6865C14.5808 14.7119 14.4752 14.7119 13.9469 16.7229C13.7356 17.5696 13.3129 19.263 12.8903 21.3798C12.1507 24.7667 11.3054 29.6353 11.3054 33.5513C11.3054 37.7849 12.2564 39.9017 14.2639 40.0075C16.694 39.9017 18.1732 37.7849 19.4411 35.8798C21.026 33.5513 21.6599 31.2229 21.7656 31.117V31.0112L21.5543 30.7995Z" fill="#323232"/>
<path d="M21.1316 30.6934C21.1316 30.7992 20.4977 33.0219 18.8072 35.3503C17.4336 37.3613 16.06 39.3722 13.7356 39.3722C7.18476 39.3722 14.1582 13.6532 14.1582 14.4999C15.2148 14.4999 18.2789 14.9233 20.1807 17.781C19.9694 17.8868 16.5883 19.8978 16.5883 24.0255C16.7997 29 21.1316 30.6934 21.1316 30.6934Z" fill="#FA8B0F"/>
<path fill-rule="evenodd" clip-rule="evenodd" d="M18.2789 10.1606C19.0185 9.63137 20.1807 9.94889 21.026 11.0073C21.8712 12.0657 21.9769 13.3358 21.2373 13.8649C20.4977 14.3941 19.3354 14.0766 18.4902 13.0182C17.6449 12.0657 17.5393 10.7956 18.2789 10.1606Z" fill="#FA8B0F"/>
<path d="M36.769 21.1681C36.769 21.1681 34.0219 19.4747 30.5352 20.8506C27.0485 22.1207 26.9428 22.6499 26.9428 23.7083C26.9428 24.9783 29.056 25.8251 30.2182 26.0367C31.2748 26.2484 37.8256 26.9893 38.7766 27.7302C39.6218 28.3652 40.5727 29.2119 40.5727 30.9054C40.5727 32.7046 34.7615 37.1499 29.056 38.3141C23.3505 39.4783 23.1391 38.9491 22.5052 38.8433C21.6599 38.7375 19.7581 35.9856 22.8222 36.0915C26.5202 36.3032 32.3314 35.774 36.0294 32.1754C37.72 30.1645 34.7615 30.0586 34.7615 30.0586C34.7615 30.0586 23.6674 28.8944 23.2448 23.7083C22.7165 18.628 33.071 17.6754 33.8106 17.4637C33.8106 17.4637 38.2483 16.5112 39.0935 20.1097C39.6218 22.2265 37.9313 22.7557 37.9313 22.7557C37.9313 22.7557 37.086 22.7557 36.9804 22.9674C36.8747 23.0732 36.4521 22.3324 36.8747 21.6973C37.1917 21.274 36.769 21.1681 36.769 21.1681Z" fill="white"/>
<path d="M50.6103 18.4163C49.9763 18.8397 45.75 24.4492 43.2142 34.2922C41.418 41.1718 47.4405 35.774 47.4405 35.774C47.4405 35.774 50.7159 32.7046 51.5612 32.8105C52.4065 32.9163 53.1461 33.8689 53.78 36.409C54.414 38.9492 54.6253 38.9492 54.6253 38.9492C54.6253 38.9492 56.1045 40.0076 56.1045 38.2083C56.1045 36.409 55.8932 36.3032 55.7875 35.5623C55.7875 34.8214 55.4706 31.2229 53.0404 30.482C50.6103 29.847 47.1236 33.2338 47.1236 33.2338C47.1236 33.2338 45.433 34.5039 46.1726 32.3871C46.9122 30.2703 50.7159 21.5915 52.3008 20.1097C54.097 18.5222 52.7234 16.9346 50.6103 18.4163Z" fill="white"/>
<path d="M77.5531 28.8939C77.5531 28.8939 76.7079 26.0362 80.6172 26.3537C84.5266 26.6712 88.5416 27.9413 88.1189 30.5873C87.6963 33.2333 81.9908 36.8318 80.3002 37.1493C78.6097 37.4669 77.4475 36.4085 79.3493 35.5618C81.2512 34.715 84.1039 33.0216 84.9492 31.2223C85.7945 29.4231 83.5756 28.2588 80.4059 28.9997C79.138 30.0581 75.9682 44.5581 75.6513 45.1931C75.6513 45.1931 75.44 45.934 74.5947 46.4632C73.7494 46.8866 72.5872 47.8391 73.2211 44.7698C73.8551 41.8063 76.8135 30.3756 77.5531 28.8939Z" fill="white"/>
<path d="M69.8401 27.8353C69.8401 27.8353 69.3118 25.7186 66.5647 26.8828C63.8175 28.047 60.6478 29.4229 59.2742 33.1273C57.9007 36.8317 60.5421 38.2076 64.8741 37.1492C69.1005 36.0908 71.5306 32.9156 71.9532 31.5397C72.2702 30.3755 72.2702 28.1529 69.8401 27.8353ZM69.1005 32.8098C67.093 35.1383 62.2327 36.1967 61.4931 35.1383C60.7535 34.0799 62.9723 31.2222 65.2968 30.058C67.6212 28.8937 69.1005 29.6346 69.1005 29.6346C69.1005 29.6346 71.108 30.4813 69.1005 32.8098Z" fill="white"/>
<path d="M109.356 5.39746V51.5435" stroke="#D8DFE3"/>
<path d="M143.378 18.3099C143.378 15.8756 144.012 13.9705 145.703 12.5946C147.182 11.3245 148.978 11.1129 150.774 11.7479C150.88 11.7479 150.88 11.7479 150.986 11.8537C152.042 12.4888 153.099 12.3829 154.155 11.8537C156.691 10.6895 159.121 11.5362 160.389 13.018C160.917 13.5472 160.917 13.5472 160.283 13.9705C157.431 16.1932 157.748 20.3209 160.917 22.0143C161.34 22.226 161.34 22.3318 161.234 22.7552C160.6 24.5545 159.65 26.1421 158.276 27.4121C157.431 28.2588 156.374 28.4705 155.212 28.0472C154.472 27.7297 153.627 27.4121 152.782 27.4121C152.042 27.4121 151.408 27.6238 150.774 27.8355C148.872 28.5764 147.921 28.3647 146.654 26.7771C144.646 24.2369 143.484 21.3793 143.378 18.3099Z" fill="white"/>
<path d="M152.465 10.3724C152.57 8.14976 154.367 6.13881 156.48 5.82129C156.797 5.82129 156.902 5.82129 156.902 6.13881C156.902 8.67895 155.001 10.6899 153.204 11.0074C152.465 11.2191 152.465 11.2191 152.465 10.3724Z" fill="white"/>
<path d="M139.469 35.9852C139.469 35.456 139.258 34.9268 138.941 34.6093C138.518 34.2918 137.884 34.0801 137.144 34.0801C136.616 34.0801 136.088 34.0801 135.559 34.1859V40.6421H136.51V38.102C136.722 38.102 136.933 38.102 137.144 38.102C137.99 38.102 138.729 37.8903 139.152 37.3611C139.258 37.0436 139.469 36.6202 139.469 35.9852ZM136.933 37.3611C136.722 37.3611 136.51 37.3611 136.299 37.2553V34.9268C136.51 34.9268 136.722 34.821 137.039 34.821C137.99 34.821 138.518 35.2443 138.518 35.9852C138.518 36.8319 137.884 37.3611 136.933 37.3611Z" fill="white"/>
<path d="M142.322 35.7738C141.793 35.7738 141.371 36.0913 141.054 36.6205V35.8796H140.208V35.9855C140.208 36.4088 140.208 36.8322 140.208 37.4672V40.6424H141.159V38.1023C141.159 37.9964 141.159 37.7848 141.159 37.6789C141.265 37.0439 141.688 36.6205 142.216 36.6205C142.322 36.6205 142.427 36.6205 142.533 36.6205H142.639V35.668C142.427 35.8796 142.427 35.7738 142.322 35.7738Z" fill="white"/>
<path d="M145.069 35.7734C143.801 35.7734 142.85 36.8318 142.85 38.3136C142.85 39.7953 143.801 40.6421 145.174 40.6421C145.914 40.6421 146.442 40.5362 146.759 40.3245L146.548 39.5837H146.442C146.125 39.6895 145.808 39.7953 145.174 39.7953C144.223 39.7953 143.695 39.2661 143.695 38.3136H146.865V38.2077C146.865 38.1019 146.865 37.9961 146.865 37.8902C147.076 37.0435 146.548 35.7734 145.069 35.7734ZM145.069 36.5143C145.386 36.5143 145.597 36.6202 145.808 36.8318C146.125 37.1494 146.125 37.5727 146.125 37.7844H143.801C143.906 37.2552 144.223 36.5143 145.069 36.5143Z" fill="white"/>
<path d="M151.725 37.785C151.725 37.6792 151.725 37.4675 151.831 37.3616C151.936 37.0441 152.253 36.6208 152.782 36.6208C153.521 36.6208 153.733 37.3616 153.733 37.9967V40.6427H154.684V37.8908C154.684 36.4091 153.838 35.8799 153.099 35.8799C152.676 35.8799 152.359 35.9857 152.042 36.1974C151.831 36.3032 151.725 36.5149 151.514 36.7266C151.303 36.1974 150.774 35.8799 150.246 35.8799C149.612 35.8799 149.189 36.0916 148.872 36.6208V35.9857H147.921C147.921 36.3032 147.921 36.7266 147.921 37.2558V40.6427H148.872V37.785C148.872 37.6792 148.872 37.4675 148.978 37.3616C149.084 36.9383 149.506 36.5149 149.929 36.5149C150.457 36.5149 150.774 36.9383 150.774 37.6792V40.5368H151.725V37.785Z" fill="white"/>
<path d="M156.797 35.8799H155.846V40.6427H156.797V35.8799Z" fill="white"/>
<path d="M156.268 35.2443C156.48 35.2443 156.585 35.1385 156.691 35.0326C156.797 34.9268 156.797 34.821 156.797 34.6093C156.797 34.2918 156.585 34.0801 156.268 34.0801C155.952 34.0801 155.635 34.2918 155.635 34.7151C155.74 35.0326 155.952 35.2443 156.268 35.2443Z" fill="white"/>
<path d="M161.129 40.0073V40.6423H161.974V40.5364C161.974 40.2189 161.974 39.7956 161.974 39.2664V35.9854H161.023V38.843C161.023 38.9489 161.023 39.1605 160.917 39.2664C160.812 39.5839 160.389 40.0073 159.861 40.0073C159.227 40.0073 158.91 39.5839 158.91 38.6313V35.9854H157.959V38.7372C157.959 40.6423 159.121 40.854 159.544 40.854C160.389 40.7481 160.917 40.3248 161.129 40.0073Z" fill="white"/>
<path d="M168.314 35.7734C167.891 35.7734 167.574 35.8793 167.257 36.091C167.046 36.1968 166.94 36.4085 166.729 36.6202C166.517 36.091 165.989 35.7734 165.461 35.7734C164.827 35.7734 164.404 35.9851 164.087 36.5143V35.8793H163.242V35.9851C163.242 36.3026 163.242 36.726 163.242 37.2552V40.6421H164.193V37.7844C164.193 37.6785 164.193 37.4669 164.298 37.361C164.404 36.9377 164.827 36.5143 165.249 36.5143C165.778 36.5143 166.2 36.9377 166.2 37.6785V40.5362H167.151V37.6785C167.151 37.5727 167.151 37.361 167.257 37.2552C167.363 36.9377 167.68 36.5143 168.208 36.5143C168.947 36.5143 169.159 37.2552 169.159 37.8902V40.5362H170.11V37.7844C169.898 36.4085 169.053 35.7734 168.314 35.7734Z" fill="white"/>
<path d="M141.688 49.1095C141.582 48.4744 141.265 48.0511 140.842 47.8394C141.582 47.5219 142.005 46.9927 142.005 46.1459C142.005 45.6167 141.793 45.1934 141.476 44.8759C141.054 44.4525 140.525 44.3467 139.574 44.3467C138.941 44.3467 138.412 44.3467 137.99 44.4525V50.9087H138.941V48.1569H139.68C140.42 48.1569 140.737 48.4744 140.948 49.3211C141.159 50.2737 141.265 50.697 141.371 50.9087H142.322V50.8029C142.11 50.5912 141.899 49.9562 141.688 49.1095ZM141.054 46.2518C141.054 46.9927 140.525 47.416 139.68 47.416H138.941V45.1934C139.046 45.1934 139.363 45.0876 139.68 45.0876C140.314 45.1934 141.054 45.4051 141.054 46.2518Z" fill="white"/>
<path d="M144.963 46.1465C143.695 46.1465 142.744 47.2049 142.744 48.6866C142.744 50.1684 143.695 51.0151 145.069 51.0151C145.808 51.0151 146.337 50.9093 146.654 50.6976L146.442 49.9567H146.337C146.02 50.0625 145.703 50.1684 145.069 50.1684C144.118 50.1684 143.589 49.6392 143.589 48.6866H146.759V48.5808C146.759 48.475 146.759 48.3691 146.759 48.2633C146.865 47.3107 146.337 46.1465 144.963 46.1465ZM143.695 48.0516C143.801 47.5224 144.118 46.7815 144.857 46.7815C145.174 46.7815 145.386 46.8874 145.597 47.099C145.914 47.4166 145.914 47.8399 145.914 48.0516H143.695Z" fill="white"/>
<path d="M149.295 48.1568C148.767 47.9451 148.45 47.7335 148.45 47.416C148.45 47.0984 148.767 46.8868 149.189 46.8868C149.612 46.8868 149.929 47.0984 150.035 47.0984H150.14L150.352 46.3576C150.035 46.1459 149.612 46.04 149.189 46.04C148.238 46.04 147.604 46.5692 147.604 47.416C147.604 48.051 148.027 48.4743 148.872 48.7919C149.506 49.0035 149.718 49.2152 149.718 49.5327C149.718 49.9561 149.401 50.1678 148.872 50.1678C148.45 50.1678 148.027 49.9561 147.816 49.8503H147.71L147.499 50.5911C147.816 50.8028 148.344 50.9087 148.767 50.9087C149.823 50.9087 150.563 50.3795 150.563 49.4269C150.563 48.8977 150.246 48.4743 149.295 48.1568Z" fill="white"/>
<path d="M153.416 46.1465C152.148 46.1465 151.197 47.2049 151.197 48.6866C151.197 50.1684 152.148 51.0151 153.521 51.0151C154.261 51.0151 154.789 50.9093 155.106 50.6976L154.895 49.9567H154.789C154.472 50.0625 154.155 50.1684 153.521 50.1684C152.57 50.1684 152.042 49.6392 152.042 48.6866H155.212V48.5808C155.212 48.475 155.212 48.3691 155.212 48.2633C155.318 47.3107 154.789 46.1465 153.416 46.1465ZM153.31 46.8874C153.627 46.8874 153.838 46.9932 154.05 47.2049C154.367 47.5224 154.367 47.9458 154.367 48.1574H152.148C152.148 47.6282 152.57 46.8874 153.31 46.8874Z" fill="white"/>
<path d="M157.219 44.1348H156.268V51.0143H157.219V44.1348Z" fill="white"/>
<path d="M159.438 44.1348H158.487V51.0143H159.438V44.1348Z" fill="white"/>
<path d="M162.608 46.1465C161.34 46.1465 160.389 47.2049 160.389 48.6866C160.389 50.1684 161.34 51.0151 162.714 51.0151C163.453 51.0151 163.982 50.9093 164.299 50.6976L164.087 49.9567H163.982C163.665 50.0625 163.348 50.1684 162.714 50.1684C161.763 50.1684 161.234 49.6392 161.234 48.6866H164.404V48.5808C164.404 48.475 164.404 48.3691 164.404 48.2633C164.51 47.3107 163.982 46.1465 162.608 46.1465ZM162.502 46.8874C162.819 46.8874 163.031 46.9932 163.242 47.2049C163.559 47.5224 163.559 47.9458 163.559 48.1574H161.234C161.34 47.6282 161.657 46.8874 162.502 46.8874Z" fill="white"/>
<path d="M167.468 46.1459C166.94 46.1459 166.517 46.4634 166.2 46.9926V46.2517H165.355V46.3576C165.355 46.7809 165.355 47.2043 165.355 47.8393V51.0145H166.306V48.4743C166.306 48.3685 166.306 48.2627 166.306 48.051C166.412 47.416 166.834 46.9926 167.363 46.9926C167.468 46.9926 167.574 46.9926 167.68 46.9926H167.785V46.04C167.68 46.1459 167.574 46.1459 167.468 46.1459Z" fill="white"/>
</svg>
