<?xml version="1.0" encoding="utf-8"?>
<!-- Generator: Adobe Illustrator 25.3.1, SVG Export Plug-In . SVG Version: 6.00 Build 0)  -->
<svg version="1.1" id="Capa_1" xmlns="http://www.w3.org/2000/svg" xmlns:xlink="http://www.w3.org/1999/xlink" x="0px" y="0px"
	 viewBox="0 0 298 203" style="enable-background:new 0 0 298 203;" xml:space="preserve">
<style type="text/css">
	.st0{fill:#FFFFFF;fill-opacity:0.3;}
	.st1{fill:none;stroke:#FFFFFF;stroke-width:3;}
	.st2{fill:#FFFFFF;}
	.st3{fill:none;stroke:#FFFFFF;}
	.st4{fill-rule:evenodd;clip-rule:evenodd;fill:#FFFFFF;}
</style>
<g>
	<path class="st0" d="M45.07,22h205c16.02,0,29,12.98,29,29l0,0c0,16.02-12.98,29-29,29h-205c-16.02,0-29-12.98-29-29l0,0
		C16.07,34.98,29.05,22,45.07,22z"/>
	<path class="st1" d="M45.07,23.5h205c15.19,0,27.5,12.31,27.5,27.5l0,0c0,15.19-12.31,27.5-27.5,27.5h-205
		c-15.19,0-27.5-12.31-27.5-27.5l0,0C17.57,35.81,29.88,23.5,45.07,23.5z"/>
</g>
<path class="st2" d="M75.44,36.6h2.1v14.7h-2.1V36.6z M84.84,51.43c-0.91,0-1.78-0.12-2.63-0.36c-0.84-0.25-1.5-0.57-1.97-0.94
	l0.84-1.6c0.49,0.35,1.08,0.63,1.78,0.84c0.7,0.21,1.41,0.31,2.12,0.31c1.76,0,2.65-0.5,2.65-1.51c0-0.34-0.12-0.6-0.36-0.8
	s-0.54-0.34-0.9-0.42c-0.35-0.1-0.85-0.2-1.51-0.32c-0.9-0.14-1.63-0.3-2.21-0.48c-0.56-0.18-1.04-0.49-1.45-0.92
	c-0.41-0.43-0.61-1.04-0.61-1.83c0-1.01,0.42-1.81,1.26-2.42c0.84-0.62,1.97-0.92,3.38-0.92c0.74,0,1.48,0.09,2.23,0.27
	c0.74,0.18,1.35,0.43,1.83,0.74l-0.86,1.6c-0.91-0.59-1.98-0.88-3.21-0.88c-0.85,0-1.51,0.14-1.95,0.42
	c-0.45,0.28-0.67,0.65-0.67,1.11c0,0.36,0.13,0.65,0.38,0.86c0.25,0.21,0.56,0.36,0.92,0.46c0.38,0.1,0.9,0.21,1.58,0.34
	c0.9,0.15,1.62,0.32,2.16,0.5c0.56,0.17,1.04,0.46,1.43,0.88c0.39,0.42,0.59,1.01,0.59,1.76c0,1.01-0.43,1.81-1.3,2.42
	C87.49,51.14,86.32,51.43,84.84,51.43z M98.11,40.07c1.41,0,2.53,0.41,3.36,1.24c0.84,0.81,1.26,2.01,1.26,3.59v6.41h-2.02v-6.17
	c0-1.08-0.26-1.89-0.78-2.44s-1.26-0.82-2.23-0.82c-1.09,0-1.95,0.32-2.58,0.97c-0.63,0.63-0.94,1.54-0.94,2.73v5.73h-2.02V35.72
	h2.02v6.03c0.42-0.53,0.97-0.94,1.64-1.24C96.5,40.22,97.27,40.07,98.11,40.07z M111.29,51.43c-1.11,0-2.1-0.24-2.98-0.74
	c-0.88-0.49-1.57-1.16-2.08-2.02c-0.49-0.87-0.74-1.85-0.74-2.94c0-1.09,0.24-2.06,0.74-2.92c0.5-0.87,1.2-1.54,2.08-2.02
	c0.88-0.49,1.88-0.74,2.98-0.74s2.09,0.24,2.96,0.74c0.88,0.48,1.57,1.15,2.06,2.02c0.5,0.85,0.76,1.83,0.76,2.92
	c0,1.09-0.25,2.07-0.76,2.94c-0.49,0.85-1.18,1.53-2.06,2.02C113.38,51.19,112.39,51.43,111.29,51.43z M111.29,49.67
	c0.71,0,1.35-0.16,1.91-0.48c0.57-0.34,1.02-0.8,1.34-1.39c0.32-0.6,0.48-1.29,0.48-2.06c0-0.77-0.16-1.45-0.48-2.04
	c-0.32-0.6-0.77-1.06-1.34-1.39c-0.56-0.32-1.2-0.48-1.91-0.48s-1.36,0.16-1.93,0.48c-0.56,0.32-1.01,0.78-1.34,1.39
	c-0.32,0.59-0.48,1.27-0.48,2.04c0,0.77,0.16,1.46,0.48,2.06c0.34,0.59,0.78,1.05,1.34,1.39C109.93,49.51,110.57,49.67,111.29,49.67
	z M125.75,40.07c1.08,0,2.04,0.24,2.9,0.71c0.85,0.48,1.52,1.14,1.99,1.99c0.49,0.85,0.74,1.84,0.74,2.96
	c0,1.12-0.24,2.11-0.74,2.98c-0.48,0.85-1.14,1.52-1.99,1.99c-0.85,0.48-1.82,0.71-2.9,0.71c-0.8,0-1.53-0.15-2.2-0.46
	c-0.66-0.31-1.22-0.76-1.68-1.34v5.75h-2.02v-15.2h1.93v1.76c0.45-0.62,1.01-1.08,1.7-1.39C124.17,40.23,124.92,40.07,125.75,40.07z
	 M125.58,49.67c0.71,0,1.35-0.16,1.91-0.48c0.57-0.34,1.02-0.8,1.34-1.39c0.34-0.6,0.5-1.29,0.5-2.06c0-0.77-0.17-1.45-0.5-2.04
	c-0.32-0.6-0.77-1.06-1.34-1.39c-0.56-0.32-1.2-0.48-1.91-0.48c-0.7,0-1.34,0.17-1.91,0.5c-0.56,0.32-1.01,0.78-1.34,1.36
	c-0.32,0.59-0.48,1.27-0.48,2.04c0,0.77,0.16,1.46,0.48,2.06c0.32,0.59,0.77,1.05,1.34,1.39C124.25,49.51,124.88,49.67,125.58,49.67
	z M149.86,45.8c0,0.15-0.01,0.36-0.04,0.61h-9.03c0.13,0.98,0.55,1.77,1.28,2.37c0.74,0.59,1.66,0.88,2.75,0.88
	c1.33,0,2.4-0.45,3.21-1.34l1.11,1.3c-0.5,0.59-1.13,1.04-1.89,1.34c-0.74,0.31-1.57,0.46-2.5,0.46c-1.18,0-2.22-0.24-3.13-0.71
	c-0.91-0.49-1.62-1.17-2.12-2.04c-0.49-0.87-0.74-1.85-0.74-2.94c0-1.08,0.24-2.05,0.71-2.92c0.49-0.87,1.15-1.54,1.99-2.02
	c0.85-0.49,1.81-0.74,2.88-0.74s2.01,0.24,2.84,0.74c0.84,0.48,1.49,1.15,1.95,2.02C149.62,43.69,149.86,44.68,149.86,45.8z
	 M144.36,41.77c-0.97,0-1.78,0.29-2.44,0.88c-0.64,0.59-1.02,1.36-1.13,2.31h7.14c-0.11-0.94-0.5-1.7-1.15-2.29
	C146.13,42.07,145.33,41.77,144.36,41.77z M158.61,40.07c1.41,0,2.53,0.41,3.36,1.24c0.84,0.81,1.26,2.01,1.26,3.59v6.41h-2.02
	v-6.17c0-1.08-0.26-1.89-0.78-2.44c-0.52-0.55-1.26-0.82-2.23-0.82c-1.09,0-1.95,0.32-2.58,0.97c-0.63,0.63-0.94,1.54-0.94,2.73
	v5.73h-2.02V40.17h1.93v1.68c0.41-0.57,0.95-1.01,1.64-1.32C156.93,40.22,157.72,40.07,158.61,40.07z M172.6,35.72h2.02V51.3h-2.02
	V35.72z M182.51,40.07c1.54,0,2.72,0.38,3.53,1.13c0.83,0.76,1.24,1.88,1.24,3.38v6.72h-1.91v-1.47c-0.34,0.52-0.82,0.92-1.45,1.2
	c-0.62,0.27-1.35,0.4-2.21,0.4c-1.25,0-2.25-0.3-3-0.9c-0.74-0.6-1.11-1.39-1.11-2.37s0.36-1.76,1.07-2.35
	c0.71-0.6,1.85-0.9,3.4-0.9h3.19v-0.4c0-0.87-0.25-1.53-0.76-1.99c-0.5-0.46-1.25-0.69-2.23-0.69c-0.66,0-1.3,0.11-1.93,0.34
	c-0.63,0.21-1.16,0.5-1.6,0.86l-0.84-1.51c0.57-0.46,1.26-0.81,2.06-1.05C180.77,40.2,181.62,40.07,182.51,40.07z M182.05,49.88
	c0.77,0,1.44-0.17,2-0.5c0.56-0.35,0.97-0.84,1.22-1.47v-1.55h-3.11c-1.71,0-2.56,0.57-2.56,1.72c0,0.56,0.22,1,0.65,1.32
	C180.68,49.72,181.28,49.88,182.05,49.88z M210.57,40.07c1.4,0,2.51,0.41,3.32,1.22c0.83,0.81,1.24,2.02,1.24,3.61v6.41h-2.02v-6.17
	c0-1.08-0.25-1.89-0.76-2.44c-0.49-0.55-1.2-0.82-2.12-0.82c-1.02,0-1.83,0.32-2.44,0.97c-0.6,0.63-0.9,1.54-0.9,2.73v5.73h-2.02
	v-6.17c0-1.08-0.25-1.89-0.76-2.44c-0.49-0.55-1.2-0.82-2.12-0.82c-1.02,0-1.83,0.32-2.44,0.97c-0.6,0.63-0.9,1.54-0.9,2.73v5.73
	h-2.02V40.17h1.93v1.66c0.41-0.57,0.94-1.01,1.6-1.3c0.66-0.31,1.41-0.46,2.25-0.46c0.87,0,1.64,0.17,2.31,0.53
	c0.67,0.35,1.19,0.86,1.55,1.53c0.42-0.64,1-1.15,1.74-1.51C208.79,40.25,209.64,40.07,210.57,40.07z M228.96,45.8
	c0,0.15-0.01,0.36-0.04,0.61h-9.03c0.13,0.98,0.55,1.77,1.28,2.37c0.74,0.59,1.66,0.88,2.75,0.88c1.33,0,2.4-0.45,3.21-1.34
	l1.11,1.3c-0.5,0.59-1.13,1.04-1.89,1.34c-0.74,0.31-1.58,0.46-2.5,0.46c-1.18,0-2.22-0.24-3.13-0.71
	c-0.91-0.49-1.62-1.17-2.12-2.04c-0.49-0.87-0.74-1.85-0.74-2.94c0-1.08,0.24-2.05,0.71-2.92c0.49-0.87,1.15-1.54,1.99-2.02
	c0.85-0.49,1.81-0.74,2.88-0.74s2.01,0.24,2.84,0.74c0.84,0.48,1.49,1.15,1.95,2.02C228.72,43.69,228.96,44.68,228.96,45.8z
	 M223.46,41.77c-0.97,0-1.78,0.29-2.44,0.88c-0.64,0.59-1.02,1.36-1.13,2.31h7.14c-0.11-0.94-0.5-1.7-1.15-2.29
	C225.23,42.07,224.43,41.77,223.46,41.77z M242.41,40.17v9.62c0,1.95-0.48,3.38-1.45,4.31c-0.97,0.94-2.41,1.41-4.33,1.41
	c-1.05,0-2.05-0.15-3-0.44c-0.95-0.28-1.72-0.69-2.31-1.22l0.97-1.55c0.52,0.45,1.15,0.8,1.91,1.05c0.77,0.27,1.56,0.4,2.37,0.4
	c1.3,0,2.26-0.31,2.88-0.92c0.63-0.62,0.95-1.55,0.95-2.81v-0.88c-0.48,0.57-1.06,1.01-1.76,1.3c-0.69,0.28-1.43,0.42-2.25,0.42
	c-1.06,0-2.03-0.22-2.9-0.67c-0.85-0.46-1.53-1.1-2.02-1.91c-0.49-0.83-0.74-1.76-0.74-2.81s0.24-1.98,0.74-2.79
	c0.49-0.83,1.16-1.46,2.02-1.91c0.87-0.45,1.83-0.67,2.9-0.67c0.84,0,1.62,0.15,2.33,0.46c0.73,0.31,1.32,0.76,1.79,1.37v-1.72
	H242.41z M236.61,49.08c0.73,0,1.38-0.15,1.95-0.46c0.59-0.31,1.04-0.74,1.37-1.28c0.34-0.56,0.5-1.19,0.5-1.89
	c0-1.08-0.36-1.95-1.07-2.6c-0.71-0.67-1.63-1.01-2.75-1.01c-1.13,0-2.06,0.34-2.77,1.01c-0.71,0.66-1.07,1.53-1.07,2.6
	c0,0.7,0.16,1.33,0.48,1.89c0.34,0.55,0.79,0.97,1.36,1.28C235.2,48.92,235.87,49.08,236.61,49.08z M250.31,40.07
	c1.54,0,2.72,0.38,3.53,1.13c0.83,0.76,1.24,1.88,1.24,3.38v6.72h-1.91v-1.47c-0.34,0.52-0.82,0.92-1.45,1.2
	c-0.62,0.27-1.35,0.4-2.21,0.4c-1.25,0-2.25-0.3-3-0.9c-0.74-0.6-1.11-1.39-1.11-2.37s0.36-1.76,1.07-2.35
	c0.71-0.6,1.85-0.9,3.4-0.9h3.19v-0.4c0-0.87-0.25-1.53-0.76-1.99c-0.5-0.46-1.25-0.69-2.23-0.69c-0.66,0-1.3,0.11-1.93,0.34
	c-0.63,0.21-1.16,0.5-1.6,0.86l-0.84-1.51c0.57-0.46,1.26-0.81,2.06-1.05C248.57,40.2,249.42,40.07,250.31,40.07z M249.85,49.88
	c0.77,0,1.43-0.17,1.99-0.5c0.56-0.35,0.97-0.84,1.22-1.47v-1.55h-3.11c-1.71,0-2.56,0.57-2.56,1.72c0,0.56,0.22,1,0.65,1.32
	C248.48,49.72,249.08,49.88,249.85,49.88z"/>
<path class="st2" d="M81.62,61.35c0.88,0,1.57,0.26,2.08,0.77c0.52,0.5,0.78,1.24,0.78,2.22v3.96h-1.25v-3.82
	c0-0.67-0.16-1.17-0.48-1.51c-0.32-0.34-0.78-0.51-1.38-0.51c-0.68,0-1.21,0.2-1.6,0.6c-0.39,0.39-0.58,0.95-0.58,1.69v3.55h-1.25
	v-6.89h1.2v1.04c0.25-0.36,0.59-0.63,1.01-0.82C80.58,61.44,81.07,61.35,81.62,61.35z M93.21,61.41v6.89h-1.18v-1.04
	c-0.25,0.36-0.58,0.63-1,0.83c-0.41,0.19-0.85,0.29-1.34,0.29c-0.92,0-1.64-0.25-2.17-0.75c-0.53-0.51-0.79-1.26-0.79-2.25v-3.97
	h1.25v3.82c0,0.67,0.16,1.17,0.48,1.52c0.32,0.34,0.78,0.51,1.38,0.51c0.66,0,1.18-0.2,1.56-0.6c0.38-0.4,0.57-0.96,0.57-1.69v-3.56
	H93.21z M101.81,64.9c0,0.1-0.01,0.22-0.03,0.38H96.2c0.08,0.61,0.34,1.1,0.79,1.47c0.46,0.36,1.03,0.55,1.7,0.55
	c0.82,0,1.49-0.28,1.99-0.83l0.69,0.81c-0.31,0.36-0.7,0.64-1.17,0.83c-0.46,0.19-0.97,0.29-1.55,0.29c-0.73,0-1.37-0.15-1.94-0.44
	c-0.56-0.3-1-0.72-1.31-1.26c-0.3-0.54-0.46-1.14-0.46-1.82c0-0.67,0.15-1.27,0.44-1.81c0.3-0.54,0.71-0.95,1.24-1.25
	c0.53-0.3,1.12-0.46,1.78-0.46s1.24,0.15,1.75,0.46c0.52,0.29,0.92,0.71,1.21,1.25C101.67,63.59,101.81,64.21,101.81,64.9z
	 M98.41,62.4c-0.6,0-1.1,0.18-1.51,0.55c-0.4,0.36-0.63,0.84-0.7,1.43h4.42c-0.07-0.58-0.31-1.05-0.71-1.42
	C99.5,62.59,99,62.4,98.41,62.4z M109.52,61.41l-3.02,6.89h-1.27l-3.02-6.89h1.3l2.37,5.52l2.42-5.52H109.52z M113.44,68.38
	c-0.68,0-1.3-0.15-1.85-0.46s-0.97-0.72-1.29-1.25c-0.3-0.54-0.46-1.14-0.46-1.82c0-0.68,0.15-1.28,0.46-1.81
	c0.31-0.54,0.74-0.95,1.29-1.25c0.55-0.3,1.16-0.46,1.85-0.46c0.68,0,1.3,0.15,1.83,0.46c0.55,0.29,0.97,0.71,1.27,1.25
	c0.31,0.53,0.47,1.13,0.47,1.81c0,0.68-0.16,1.28-0.47,1.82c-0.3,0.53-0.73,0.94-1.27,1.25C114.74,68.23,114.13,68.38,113.44,68.38z
	 M113.44,67.29c0.44,0,0.84-0.1,1.18-0.3c0.36-0.21,0.63-0.49,0.83-0.86c0.2-0.37,0.3-0.8,0.3-1.27s-0.1-0.9-0.3-1.26
	c-0.2-0.37-0.48-0.66-0.83-0.86c-0.35-0.2-0.74-0.3-1.18-0.3s-0.84,0.1-1.2,0.3c-0.35,0.2-0.62,0.49-0.83,0.86
	c-0.2,0.36-0.3,0.78-0.3,1.26s0.1,0.9,0.3,1.27c0.21,0.36,0.49,0.65,0.83,0.86C112.6,67.19,113,67.29,113.44,67.29z M130.85,61.35
	c0.87,0,1.55,0.25,2.05,0.75c0.51,0.5,0.77,1.25,0.77,2.24v3.96h-1.25v-3.82c0-0.67-0.16-1.17-0.47-1.51
	c-0.3-0.34-0.74-0.51-1.31-0.51c-0.63,0-1.14,0.2-1.51,0.6c-0.37,0.39-0.56,0.95-0.56,1.69v3.55h-1.25v-3.82
	c0-0.67-0.16-1.17-0.47-1.51c-0.3-0.34-0.74-0.51-1.31-0.51c-0.63,0-1.14,0.2-1.51,0.6c-0.37,0.39-0.56,0.95-0.56,1.69v3.55h-1.25
	v-6.89h1.2v1.03c0.25-0.36,0.58-0.62,0.99-0.81c0.41-0.19,0.87-0.29,1.39-0.29c0.54,0,1.01,0.11,1.43,0.33
	c0.42,0.22,0.74,0.53,0.96,0.95c0.26-0.4,0.62-0.71,1.08-0.94C129.75,61.46,130.27,61.35,130.85,61.35z M138.48,61.35
	c0.95,0,1.68,0.23,2.18,0.7c0.51,0.47,0.77,1.17,0.77,2.09v4.16h-1.18v-0.91c-0.21,0.32-0.51,0.57-0.9,0.74
	c-0.38,0.16-0.84,0.25-1.36,0.25c-0.77,0-1.39-0.19-1.86-0.56c-0.46-0.37-0.69-0.86-0.69-1.47c0-0.61,0.22-1.09,0.66-1.46
	c0.44-0.37,1.14-0.56,2.11-0.56h1.98v-0.25c0-0.54-0.16-0.95-0.47-1.23c-0.31-0.29-0.77-0.43-1.38-0.43c-0.41,0-0.81,0.07-1.2,0.21
	c-0.39,0.13-0.72,0.31-0.99,0.53l-0.52-0.94c0.36-0.29,0.78-0.5,1.27-0.65C137.4,61.43,137.92,61.35,138.48,61.35z M138.19,67.42
	c0.48,0,0.89-0.1,1.24-0.31c0.35-0.22,0.6-0.52,0.75-0.91v-0.96h-1.92c-1.06,0-1.59,0.36-1.59,1.07c0,0.35,0.13,0.62,0.4,0.82
	C137.34,67.32,137.72,67.42,138.19,67.42z M146.78,68.38c-0.7,0-1.33-0.15-1.88-0.46c-0.55-0.3-0.98-0.72-1.29-1.25
	c-0.31-0.54-0.47-1.14-0.47-1.82c0-0.68,0.16-1.28,0.47-1.81c0.31-0.54,0.74-0.95,1.29-1.25c0.55-0.3,1.18-0.46,1.88-0.46
	c0.62,0,1.18,0.13,1.66,0.38c0.49,0.25,0.88,0.62,1.14,1.09l-0.95,0.61c-0.22-0.33-0.49-0.58-0.81-0.74
	c-0.32-0.16-0.68-0.25-1.07-0.25c-0.45,0-0.86,0.1-1.22,0.3c-0.36,0.2-0.64,0.49-0.85,0.86c-0.2,0.36-0.3,0.78-0.3,1.26
	c0,0.49,0.1,0.91,0.3,1.29c0.21,0.36,0.49,0.65,0.85,0.85c0.36,0.2,0.77,0.3,1.22,0.3c0.39,0,0.75-0.08,1.07-0.25
	c0.32-0.16,0.59-0.41,0.81-0.74l0.95,0.6c-0.27,0.48-0.65,0.85-1.14,1.11C147.96,68.26,147.4,68.38,146.78,68.38z M157.51,63.59
	c0.53,0.15,0.94,0.42,1.25,0.81c0.3,0.38,0.46,0.87,0.46,1.46c0,0.79-0.3,1.4-0.9,1.82c-0.59,0.42-1.45,0.64-2.59,0.64h-4.34v-9.1
	h4.08c1.04,0,1.84,0.21,2.4,0.62c0.57,0.42,0.86,0.99,0.86,1.73c0,0.48-0.11,0.89-0.34,1.24C158.18,63.14,157.88,63.4,157.51,63.59z
	 M152.69,60.26v2.91h2.66c0.67,0,1.18-0.12,1.53-0.36c0.36-0.25,0.55-0.62,0.55-1.09s-0.18-0.84-0.55-1.08
	c-0.36-0.25-0.87-0.38-1.53-0.38H152.69z M155.68,67.25c0.74,0,1.29-0.12,1.66-0.36c0.37-0.24,0.56-0.62,0.56-1.14
	c0-1.01-0.74-1.52-2.22-1.52h-2.99v3.03H155.68z M163.99,68.38c-0.68,0-1.3-0.15-1.85-0.46s-0.98-0.72-1.29-1.25
	c-0.3-0.54-0.46-1.14-0.46-1.82c0-0.68,0.15-1.28,0.46-1.81c0.31-0.54,0.74-0.95,1.29-1.25c0.55-0.3,1.16-0.46,1.85-0.46
	c0.69,0,1.3,0.15,1.83,0.46c0.55,0.29,0.97,0.71,1.27,1.25c0.31,0.53,0.47,1.13,0.47,1.81c0,0.68-0.16,1.28-0.47,1.82
	c-0.3,0.53-0.73,0.94-1.27,1.25C165.29,68.23,164.68,68.38,163.99,68.38z M163.99,67.29c0.44,0,0.84-0.1,1.18-0.3
	c0.36-0.21,0.63-0.49,0.83-0.86c0.2-0.37,0.3-0.8,0.3-1.27s-0.1-0.9-0.3-1.26c-0.2-0.37-0.48-0.66-0.83-0.86
	c-0.35-0.2-0.74-0.3-1.18-0.3s-0.84,0.1-1.2,0.3c-0.35,0.2-0.62,0.49-0.83,0.86c-0.2,0.36-0.3,0.78-0.3,1.26s0.1,0.9,0.3,1.27
	c0.21,0.36,0.49,0.65,0.83,0.86C163.15,67.19,163.55,67.29,163.99,67.29z M172.25,68.38c-0.68,0-1.3-0.15-1.85-0.46
	s-0.98-0.72-1.29-1.25c-0.3-0.54-0.46-1.14-0.46-1.82c0-0.68,0.15-1.28,0.46-1.81c0.31-0.54,0.74-0.95,1.29-1.25
	c0.55-0.3,1.16-0.46,1.85-0.46c0.69,0,1.3,0.15,1.83,0.46c0.55,0.29,0.97,0.71,1.27,1.25c0.31,0.53,0.47,1.13,0.47,1.81
	c0,0.68-0.16,1.28-0.47,1.82c-0.3,0.53-0.73,0.94-1.27,1.25C173.54,68.23,172.93,68.38,172.25,68.38z M172.25,67.29
	c0.44,0,0.84-0.1,1.18-0.3c0.36-0.21,0.63-0.49,0.83-0.86c0.2-0.37,0.3-0.8,0.3-1.27s-0.1-0.9-0.3-1.26
	c-0.2-0.37-0.48-0.66-0.83-0.86c-0.35-0.2-0.74-0.3-1.18-0.3c-0.44,0-0.84,0.1-1.2,0.3c-0.35,0.2-0.62,0.49-0.83,0.86
	c-0.2,0.36-0.3,0.78-0.3,1.26s0.1,0.9,0.3,1.27c0.21,0.36,0.49,0.65,0.83,0.86C171.41,67.19,171.8,67.29,172.25,67.29z
	 M180.22,65.09l-1.43,1.33v1.88h-1.25v-9.65h1.25v6.19l3.76-3.43h1.51l-2.9,2.85l3.18,4.04h-1.53L180.22,65.09z"/>
<path class="st3" d="M85.07,78.3v105"/>
<path class="st4" d="M53.77,40.46c0.06-0.53-0.44-0.94-0.95-0.79c-0.91,0.28-1.85,0.87-2.46,1.59c-0.59,0.68-1.13,1.69-1.24,2.74
	c-0.05,0.5,0.4,0.89,0.89,0.8c1-0.2,1.94-0.83,2.56-1.59C53.18,42.46,53.65,41.48,53.77,40.46z M58.07,56.26
	c0.31,0.18,0.45,0.56,0.32,0.9c-0.24,0.63-0.68,1.64-1.39,2.67c-0.97,1.41-1.97,2.82-3.55,2.85c-1.55,0.03-2.05-0.92-3.83-0.92
	c-1.78,0-2.33,0.89-3.8,0.95c-1.53,0.06-2.69-1.53-3.67-2.94c-1.99-2.88-3.52-8.15-1.47-11.7c1.02-1.76,2.83-2.88,4.8-2.91
	c1.5-0.03,2.92,1.01,3.83,1.01c0.92,0,2.64-1.25,4.44-1.06c0.67,0.03,2.39,0.24,3.73,1.66c0.29,0.31,0.26,0.8-0.07,1.07
	c-0.75,0.62-1.94,1.93-1.92,3.99C55.51,54.43,57.18,55.75,58.07,56.26z"/>
</svg>
