<svg width="30" height="18" viewBox="0 0 30 18" fill="none" xmlns="http://www.w3.org/2000/svg">
<path d="M28.3855 0.998047H8.40981C8.16665 0.998047 7.96948 1.19516 7.96948 1.43838C7.96948 1.68154 8.16665 1.87871 8.40981 1.87871H28.3855C28.7902 1.87871 29.1194 2.20789 29.1194 2.61254V15.3886C29.1194 15.7932 28.7902 16.1224 28.3855 16.1224H23.3515C23.1083 16.1224 22.9112 16.3196 22.9112 16.5628C22.9112 16.8059 23.1083 17.0031 23.3515 17.0031H28.3855C29.2758 17.0031 30 16.2788 30 15.3886V2.61254C30 1.72232 29.2758 0.998047 28.3855 0.998047Z" fill="white"/>
<path d="M21.5903 16.1224H1.61449C1.20984 16.1224 0.880664 15.7933 0.880664 15.3886V2.61254C0.880664 2.20789 1.20984 1.87871 1.61449 1.87871H6.64852C6.89168 1.87871 7.08885 1.68154 7.08885 1.43838C7.08885 1.19521 6.89168 0.998047 6.64852 0.998047H1.61449C0.724277 0.998047 0 1.72232 0 2.61254V15.3886C0 16.2788 0.724277 17.003 1.61449 17.003H21.5903C21.8335 17.003 22.0306 16.8059 22.0306 16.5627C22.0305 16.3195 21.8334 16.1224 21.5903 16.1224Z" fill="white"/>
<path d="M27.4514 14.4219C27.6946 14.4219 27.8918 14.2248 27.8918 13.9816V4.02041C27.8918 3.77725 27.6946 3.58008 27.4514 3.58008H2.54861C2.30544 3.58008 2.10828 3.77719 2.10828 4.02041V13.9816C2.10828 14.2247 2.30544 14.4219 2.54861 14.4219H27.4514ZM20.4209 11.051V9.44127H27.0112V11.051H20.4209ZM15.4403 11.051V9.44127H17.05V11.051H15.4403ZM12.9501 11.051V9.44127H14.5597V11.051H12.9501ZM10.4598 11.051V9.44127H12.0694V11.051H10.4598ZM10.4598 6.95104H12.0694V8.56072H10.4598V6.95104ZM9.5791 8.56066H7.96947V6.95098H9.5791V8.56066ZM20.4209 8.56066V6.95098H22.0306V8.56066H20.4209ZM19.5403 8.56066H17.9306V6.95098H19.5403V8.56066ZM17.05 8.56066H15.4403V6.95098H17.05V8.56066ZM14.5597 8.56066H12.95V6.95098H14.5597V8.56066ZM17.9306 9.44133H19.5403V11.051H17.9306V9.44133ZM27.0111 8.56066H22.9112V6.95098H27.0111V8.56066ZM22.9112 6.07037V4.46068H24.5209V6.07037H22.9112ZM22.0306 6.07037H20.4209V4.46068H22.0306V6.07037ZM19.5403 6.07037H17.9306V4.46068H19.5403V6.07037ZM17.05 6.07037H15.4403V4.46068H17.05V6.07037ZM14.5597 6.07037H12.95V4.46068H14.5597V6.07037ZM12.0694 6.07037H10.4597V4.46068H12.0694V6.07037ZM9.5791 6.07037H7.96947V4.46068H9.5791V6.07037ZM7.08886 6.07037H5.47918V4.46068H7.08886V6.07037ZM7.08886 6.95104V8.56072H2.98888V6.95104H7.08886ZM2.98888 9.44133H9.5791V11.051H2.98888V9.44133ZM7.08886 11.9316V13.5413H5.47918V11.9316H7.08886ZM7.96947 11.9316H9.5791V13.5413H7.96947V11.9316ZM10.4598 11.9316H19.5403V13.5413H10.4598V11.9316ZM20.4209 11.9316H22.0306V13.5413H20.4209V11.9316ZM22.9112 11.9316H24.5209V13.5413H22.9112V11.9316ZM25.4015 13.5413V11.9316H27.0112V13.5413H25.4015ZM27.0111 6.07037H25.4015V4.46068H27.0111V6.07037ZM4.59857 4.46074V6.07043H2.98888V4.46074H4.59857ZM2.98888 11.9316H4.59857V13.5413H2.98888V11.9316Z" fill="white"/>
</svg>
